<?xml version="1.0" encoding="UTF-8"?>
<svg id="Hair_7_A" xmlns="http://www.w3.org/2000/svg" xmlns:xlink="http://www.w3.org/1999/xlink" viewBox="0 0 153.76 235.96">
  <defs>
    <style>
      .cls-1 {
        fill: url(#linear-gradient-8);
      }

      .cls-2 {
        fill: url(#linear-gradient-7);
      }

      .cls-3 {
        fill: url(#linear-gradient-5);
      }

      .cls-4 {
        fill: url(#linear-gradient-6);
      }

      .cls-5 {
        fill: url(#linear-gradient-9);
      }

      .cls-6 {
        fill: url(#linear-gradient-4);
      }

      .cls-7 {
        fill: url(#linear-gradient-3);
      }

      .cls-8 {
        fill: url(#linear-gradient-2);
      }

      .cls-9 {
        opacity: .87;
      }

      .cls-9, .cls-10 {
        fill: #f06b2b;
      }

      .cls-11 {
        fill: url(#linear-gradient);
      }

      .cls-12 {
        fill: url(#linear-gradient-10);
      }
    </style>
    <linearGradient id="linear-gradient" x1="82.8" y1="162.1" x2="82.8" y2="184.89" gradientUnits="userSpaceOnUse">
      <stop offset="0" stop-color="#f06b2b"/>
      <stop offset="1" stop-color="#801f00"/>
    </linearGradient>
    <linearGradient id="linear-gradient-2" x1="84.22" y1="169.7" x2="84.22" y2="159.79" xlink:href="#linear-gradient"/>
    <linearGradient id="linear-gradient-3" x1="82.52" y1="134.53" x2="82.52" y2="189.49" xlink:href="#linear-gradient"/>
    <linearGradient id="linear-gradient-4" x1="82.6" y1="158.82" x2="82.6" y2="169.05" xlink:href="#linear-gradient"/>
    <linearGradient id="linear-gradient-5" x1="84.22" y1="171.24" x2="84.22" y2="163.65" xlink:href="#linear-gradient"/>
    <linearGradient id="linear-gradient-6" x1="82.52" y1="130.56" x2="82.52" y2="171.43" xlink:href="#linear-gradient"/>
    <linearGradient id="linear-gradient-7" x1="70.53" y1="139.52" x2="70.53" y2="159.21" xlink:href="#linear-gradient"/>
    <linearGradient id="linear-gradient-8" x1="97.81" y1="139.52" x2="97.81" y2="159.21" xlink:href="#linear-gradient"/>
    <linearGradient id="linear-gradient-9" x1="82.66" y1="143.18" x2="82.66" y2="150.52" xlink:href="#linear-gradient"/>
    <linearGradient id="linear-gradient-10" x1="82.75" y1="164.42" x2="82.75" y2="195.7" xlink:href="#linear-gradient"/>
  </defs>
  <path class="cls-9" d="M59.18,157.24s.03-.03.05-.05c-.1.09-.19.19-.05.05ZM60,154.97c-.53.21-.97.6-1.28,1.08.15-.07.23-.18.35-.28l.93-.79ZM58.94,156.42l1.06-1.06c-.51.19-1.05.96-1.06,1.06ZM59.23,157.19c.07-.07.13-.13.1-.1l.93-.79c-.41.21-.76.52-1.03.9ZM60.13,155.76c-.44.31-.85.77-1.14,1.18.05-.1.12-.19.22-.25l.93-.93ZM59.86,158.67l1.32-1.06c-.66.37-1.22.87-1.67,1.48.21-.11.2-.24.35-.42ZM60.26,156.69c-.47.31-.86.74-1.19,1.16.15-.1.29-.22.4-.37l.79-.79ZM103.65,169.91l-.05-.08c.02.07.05.13.07.2.27.27.01-.05-.02-.12ZM98.09,171.9l-1.58-3.44c.22.92.99,3.14,1.58,3.44ZM101.66,167.8l-2.25-3.04c.68.99,1.34,2.29,2.25,3.04ZM95.71,169.25c.48.98.97,1.97,1.72,2.78l-1.72-2.78ZM60,159.73l1.72-1.59c-.78.2-1.66,1.26-1.72,1.59ZM101.27,167.93l-2.25-2.65c.4.88,1.45,2.11,2.25,2.65ZM59.47,158.01l1.06-1.06c-.52.24-1.07.97-1.06,1.06ZM58.28,155.76l1.45-1.32c-.67.1-1.14.77-1.45,1.32ZM60.13,159.09l-.14.11c-.2.19-.09.09.14-.11ZM61.32,158.14c-.21.1-.84.64-1.19.95l1.19-.95ZM60.79,157.35c-.55.25-.96.69-1.35,1.15-.19.21.16-.09.16-.09l1.19-1.06ZM77.61,177.38s0,0,0,0c0,0,0,0,0,0-.02-.04-.02-.03,0,0ZM96.24,174.4c-.07-1.24-.61-2.64-.92-3.43l.92,3.43ZM95.51,174.73c-.13-1.26-.42-2.57-.73-3.76l.73,3.76ZM93.92,173.17c-.11-.36-.22-.68-.33-.88l.33.88ZM94.12,171.63l.94,3.14c-.11-.56-.22-1.21-.28-1.42-.16-.59-.41-1.17-.67-1.73ZM105.1,164.09s-.03-.06-.05-.09c0-.04.01-.09.02-.13l.17.09c-.05-.04-.11-.08-.16-.12.02-.18.03-.36.03-.54,0-.26-.02-.51-.07-.74-.03-.12-.11-.25-.2-.39l.07-.27c-.22-.36-.36-.78-.58-1.08-.02.17-.05.34-.07.52-.03-.07-.05-.14-.06-.2,0,.14.01.3.02.46-.03.31-.05.63-.04.95-.12-.16-.25-.32-.41-.46l.34.51c-.07-.04-.14-.08-.21-.11l.24.16.04.07c0,.09.01.18.03.28,0,.02,0,.04,0,.06-.35-.45-.75-.85-1.23-.96l1.18,1.18h0c-.12-.04-.25-.09-.38-.12l.37.2c-.03.11-.07.21-.12.31l-.17-.1-.87-1.33c.22.34.51.83.8,1.29l-.4-.24c.13.08.27.16.4.24.06.09.11.18.17.27-.04.06-.09.11-.14.16-.06-.04-.11-.1-.17-.14l.16.16s-.05.07-.09.1c.09-.01.16,0,.21.03l.03.03c.07.07.09.18.06.32-.12-.15-.25-.29-.38-.37l.35.48c-.02.05-.03.11-.06.17-.44-.75-1.12-1.58-1.61-2.24l1.55,2.37s-.02.04-.03.07c-.21-.28-.41-.48-.45-.46l.37.6c-.04.07-.09.15-.14.21-.03-.03-.04-.07-.07-.1-.52-.89-1.11-1.72-1.76-2.56l1.7,2.5c-.19-.21-.4-.4-.65-.52l.63.87c-.06.07-.12.13-.16.16.11.11.28.22.4.33-.05.05-.11.08-.17.1-.56-1.01-1.22-2-2.02-2.78l1.45,2.18.36.64s-.08.01-.12,0c.06,0,.1.02.14.04l.03.04c-.02.14-.06.26-.09.38-.19-.28-.39-.54-.56-.74,0-.01-.01-.03-.02-.04-.57-1.01-1.27-1.92-1.86-2.91l1.79,2.85c-.07-.08-.14-.15-.2-.2l.72,1.44c-.03.07-.07.15-.1.22-.3-.46-.66-.89-1.01-1.21l-1.59-2.56c.35.71.76,1.52,1.22,2.27-.01,0-.02-.02-.03-.03l1.18,1.95c-.08.14-.16.28-.24.41-.18-.24-.36-.48-.55-.72,0-.05-.03-.11,0-.19l-1.98-2.91c.4,1.08,1.15,2.28,1.86,3.17.03,0,.04-.01.05-.02l.53.82c-.04.07-.08.14-.11.21-.34-.64-.77-1.29-1.28-1.68l1.18,1.89s-.04.08-.05.13c-.35-.32-.73-.62-1.12-.83l1.01,1.11c-.04.1-.08.2-.13.31-.28-.31-.58-.6-.89-.82.03-.05.04-.11.01-.2l-1.84-1.38c-.09-.2-.17-.41-.27-.6l.23.57-.75-.57c.26.19.51.38.76.58l.6,1.5c-.23-.24-.48-.46-.75-.66-.14-.35-.3-.7-.48-1.02l.33.94c-.15-.1-.3-.2-.47-.28l.63.74.45,1.26s-.02-.02-.03-.02l.03.03.15.41c-.03-.12-.06-.24-.09-.35l1.07,1.12c.05.13.11.26.16.39-.1.05-.21.07-.32.07.01.04.02.09.02.14-.2-.22-.4-.44-.62-.65v-.1l-.22-.61c.05.21.09.42.13.63-.13-.12-.27-.23-.41-.33l-1.22-2.99c.25.94.61,1.9,1,2.84-.11-.07-.22-.14-.34-.19l.42.4c.16.39.33.78.49,1.16-.11-.11-.23-.22-.35-.32,0-.02-.01-.03-.02-.05v.04c-.14-.12-.29-.23-.46-.32l-1.11-2.3c.31.71.57,1.45.86,2.18-.11-.05-.23-.1-.35-.13l.49.44c.1.25.21.5.32.74.14.01.18-.07.12-.26l-.07-.15.34.31.22.9c-.05.13-.12.25-.19.37-.2-.67-.5-1.33-.96-1.7v.04s-1.72-3.34-1.72-3.34c.34,1.28.95,2.82,1.74,3.86.1-.03.13-.1.12-.19l.62,1.61s-.07.07-.1.11c-.25-.78-.61-1.5-1.06-1.81l.86,1.98c-.13,0-.26,0-.4.02-.25-.76-.59-1.53-1.25-2l.99,2.05c-.22.06-.41.14-.58.22-.25-.59-.55-1.18-.94-1.61l.86,1.65s-.03.01-.04.02c.03.01.04.02.07.03l.25.48c-.14.09-.38.16-.6.22-.04-.12-.07-.22-.09-.26-.17-.38-.36-.79-.59-1.15l-.24-1.65c-.04.49,0,.96.08,1.43-.11-.14-.23-.27-.36-.38-.14-.48-.29-.96-.39-1.44l.3,1.36s-.02-.03-.04-.04l.05.1.39,1.76c-.1-.05-.21-.1-.31-.14l.35.32.05.21c0-.06,0-.12-.01-.18l.52.47c-.15-.03-.3-.04-.45-.05-.16-.14-.32-.27-.46-.35v-.03h0v.03c-.17-.11-.31-.18-.39-.16l.4.35c0,.09,0,.18,0,.27v-.27l.22.19c.14.22-.02.38-.26.49-.21-.19-.43-.37-.67-.53v-.05s0,.03,0,.05c-.11-.08-.22-.16-.33-.23l.35.37c.01.13.02.27.03.4-.16-.19-.32-.35-.47-.47l-.02-.07s0,.04.01.06c-.1-.08-.2-.14-.29-.16l.36.49c.08.36.14.58.17.44l-.1-.35.22.3s-.03,0-.04.01c.01.14-.07.25-.07.38-.03,0-.07-.02-.1-.02-.16-.24-.33-.44-.48-.53l-.82-2.21c.32,1.07.64,2.55.97,2.68.06.21.05.37-.03.49-.16-.32-.37-.62-.61-.87l.47,1.01c-.08.06-.18.1-.29.13-.14-.28-.31-.52-.44-.62l.29.64c-.07.01-.14.02-.21.03-.12-.24-.28-.41-.48-.41l.07.18c-.39-.63-.93-1.22-1.4-1.76l1.45,2.01c-.16,0-.32,0-.44,0-.18-.54-.41-1.06-.75-1.5l.8,1.91s0,.08,0,.12c-.1-.06-.3-.35-.44-.35-.05,0-.1.05-.16.12-.03-.02-.04-.06-.07-.08l.05.1s-.06.08-.09.12c-.06-.47-.18-.93-.22-1.41l.18,1.46c-.04.06-.09.11-.12.13.01-.24.02-.54-.15-.68-.04.17-.12.29-.21.4l-.09-.65s0,.02,0,.03c-.06-.36-.15-.58-.26-.43l.2,1.19s-.09.06-.13.08c-.02-.03-.04-.05-.06-.08l.05.08c-.06.03-.12.05-.18.08.04-.62-.03-1.25-.4-1.35l.09,1.42c-.08.02-.16.03-.24.04.06-.63.01-1.27-.25-1.33v1.35s-.1,0-.14.01c.05.14.07.32.04.48-.07-.1-.16-.2-.25-.3.02-.5-.02-1.02-.17-1.41l-.07,1.14s0,0,0-.01c-.21.14-.23.43-.42.61.04-.52,0-1.06-.16-1.48v1.58s-.06.03-.1.04c-.12.03-.27.02-.42-.01.07-.69.08-1.49-.14-1.34v1.31c-.13-.03-.26-.07-.38-.11,0-.33-.01-.64-.01-.81l-.05.79c-.16-.05-.3-.1-.42-.14.11.21.25.44.29.68-.14-.14-.34-.28-.55-.39-.07-.34-.17-.61-.32-.67l.11.58c-.13-.05-.25-.09-.37-.1,0,.17-.04.31-.09.44-.01-.08-.05-.14-.1-.19-.02-.11-.05-.22-.08-.33l.04.28s-.02-.03-.03-.04c-.17.06-.4.08-.62.06-.02-.1-.03-.2-.05-.3l.05.3c-.22-.02-.45-.07-.61-.15.02.28-.24.39-.25.66-.09-.16-.14-.35-.21-.52-.13.09-.27.2-.39.33.19-.73-.64-.2-.99-.13-.44.09-.88.05-1.31-.03l-.13-.45c-.02.13-.01.28-.01.42-.07-.02-.15-.03-.22-.04.12.12.18.27.17.44-.12-.15-.26-.23-.41-.29l-.2-.52c-.07-.05-.08.16-.05.44-.05-.01-.11-.02-.17-.03l-.31-.94c0,.29-.01.6-.02.91-.03,0-.06,0-.08,0-.09,0-.2,0-.3.02v-1.06c-.11.29-.22.71-.26,1.08-.13.02-.26.03-.4.05v-1.26c-.03.17-.12.75-.14,1.27,0,0-.01,0-.02,0,0-.03-.01-.05-.02-.08-.2.15-.3.03-.36-.13l.14-1.59c-.12.39-.26.9-.35,1.41-.1.12-.21.24-.33.33.03-.15,0-.26-.03-.34l.18-1.26c-.13.26-.25.67-.34,1.09-.1-.05-.22-.09-.35-.11l.17-1.12c-.07.25-.2.67-.3,1.1-.16-.02-.33-.03-.49-.07l.26-1.57c-.2.45-.33.99-.42,1.52-.09-.03-.16-.08-.22-.14-.02.21-.14.39-.32.48-.08-.08-.14-.17-.2-.27l.24-1.33c-.11.38-.24.75-.33,1.13,0-.02-.02-.03-.02-.05-.14,0-.29.03-.44.07l.13-1.42c-.1.48-.17.96-.22,1.44-.01,0-.03,0-.04.01l-.14-.4c.02.1.04.25.07.42-.1.04-.21.09-.29.15-.02-.18.05-.37.13-.54-.16.04-.31.07-.47.13l-.11-.43c-.01.14-.01.31,0,.48-.09.04-.17.09-.25.15l.26-.77c-.13.16-.23.34-.34.52,0-.06.02-.12.02-.18-.04.01-.09.04-.14.05l-.05-.48.05-.1s-.03.05-.05.08l-.02-.15v.18c-.17.28-.37.54-.57.8,0,0,0,0,0,0,0-.02-.02-.03-.03-.04l-.07-.39.54-.94c-.21.13-.41.33-.6.57-.01-.11-.03-.21-.06-.3l.06.31c-.07.09-.14.19-.21.29-.05-.05-.11-.1-.16-.14l-.02-.16.46-.83c-.1.2-.28.44-.48.7l-.05-.43c-.06.18-.09.37-.1.57-.09-.06-.18-.12-.27-.17.02.18-.05.33-.19.43l-.03-.23.31-.52c-.1.12-.21.25-.33.39l-.06-.48c-.03.18-.05.36-.07.54-.06-.09-.12-.17-.18-.24-.02.18-.1.23-.2.37-.03-.02-.06-.03-.09-.04l-.03-.24.31-.46c-.1.12-.2.25-.31.39l-.08-.67.52-.71c-.16-.14-.6.44-1.06,1.13v-.3c0,.11-.02.23-.03.35-.07.1-.13.2-.19.3-.13,0-.26,0-.38.01v-.12s1.2-1.85,1.2-1.85c-.29.4-.74.9-1.17,1.41l.04-.8c-.03.29-.07.58-.11.88-.12.14-.22.28-.33.41.07-.14.14-.28.2-.4-.09-.01-.17-.01-.26,0l.04-.42,1.78-2.45c-.3.4-1.05,1.25-1.74,2.09l.03-.24c0,.08-.02.16-.03.25-.23.28-.46.56-.66.82l.21-1.28,1.53-2.04c-.54.46-1.46,1.48-2.17,2.43l.1-.62.87-1.29c-.25.29-.53.61-.81.92l.02-.12c-.02.05-.03.11-.05.16-.22.25-.45.5-.66.75l.19-.79,1.58-2.1c-.67.6-1.51,1.47-2.17,2.38l.26-.98,1.34-1.72c-.69.82-1.48,1.58-2.14,2.42l.35-1,1.83-2.15c-.86.86-1.84,1.77-2.65,2.77l.54-1.32c-.17.32-.47.94-.77,1.62-.11.15-.22.3-.32.46-.02,0-.04,0-.06,0,.14-.28.27-.56.4-.85l-.45.85c-.09,0-.19,0-.28,0l1.08-2.47c-.19.34-.52.82-.85,1.35l1.37-2.67c-.6,1.08-1.18,2.13-1.72,3.23-.12.03-.25.07-.38.11l1.18-2.28c.25-.5-.81,1.02-.93,1.22-.13.22-.26.45-.39.69-.03,0-.05,0-.08,0l.19-.37c-.08.13-.15.25-.22.38-.11,0-.21,0-.3-.03l1.34-2.29c-.53.64-1.15,1.36-1.64,2.13-.02-.02-.03-.04-.04-.05.64-1.06,1.48-2.56,1.95-3.7-.08-.1-.17-.05-.26.16l-.6,1.2c-.37.49-.81.99-1.22,1.49-.04,0-.08,0-.12.01l1.4-2.54c-.19.26-.37.5-.48.68-.39.6-.71,1.23-1.03,1.87-.12.02-.23.06-.34.1l1.46-2.15c-.44.56-.91,1.06-1.34,1.59.72-1.1,1.33-2.36,2-3.44l-2.21,3.58c-.15.08-.3.16-.44.25-.01-.24,0-.49.05-.72l1.42-1.72c-.26.23-.57.48-.89.76l.78-1.37c.08-.09.17-.17.24-.26l-.23.25.39-.69c-.18.29-.37.58-.56.87l-.06.07s.03-.03.04-.04c-.32.49-.65.98-.94,1.48-.03.02-.05.05-.07.07-.09.03-.18.06-.27.08.05-.26.27-.43.44-.59-.03-.01-.07-.01-.1-.02l.9-.97c-.22.22-.47.43-.73.64l.3-.48c-.13.19-.27.37-.4.56-.09.07-.17.14-.25.21-.15,0-.31,0-.46.02.14-.22.29-.44.43-.66l1.63-1.63-.94,1.5c.69-.95,1.4-1.89,1.82-2.91l-.84,1.35c-.39.35-.82.7-1.26,1.05.22-.36.43-.72.65-1.08l.53-.53c-.09.04-.2.1-.3.15.19-.32.39-.63.57-.95l-.6.96c-.26.14-.54.32-.82.54l.43-.69.46-.41c-.1.06-.21.13-.33.2l1.12-1.79c-.52.61-1.06,1.33-1.56,2.07-.15.1-.3.21-.45.32.97-1.2,1.97-2.41,2.41-3.72l-2.59,3.85c-.35.26-.69.54-1.01.82-.07.05-.14.1-.22.15l.91-1.38c.23-.21.46-.43.67-.65l-.66.63,1.98-3.02c-1.02,1.02-2.01,2.33-2.71,3.69-.08.07-.17.15-.25.22.05-.14.12-.29.16-.43-.04,0-.08,0-.12,0l2.66-3.88c-.93,1.26-1.82,2.57-2.68,3.89-.04,0-.09,0-.13,0,0-.05.02-.11.03-.16l1.59-2.15c-.41.61-1,1.16-1.55,1.74.04-.08.08-.16.11-.25-.07,0-.14,0-.21,0l1.39-1.62c-.36.36-.74.72-1.12,1.1l1.17-1.81c-.57.77-1.21,1.52-1.69,2.34,0,0-.01.01-.02.02-.08.01-.16.02-.22.05.1-.31.37-.55.55-.81-.03,0-.06,0-.1,0l.32-.36c-.12.12-.24.24-.36.37,0,0-.02,0-.03,0l.99-1.72.76-.89c-.14.09-.28.2-.43.31l.56-.97c-.19.34-.38.66-.58.99-.56.44-1.16,1.05-1.67,1.68-.04-.07-.07-.15-.09-.23l1.82-2.04c-.49.37-1.19,1.06-1.85,1.83-.03-.21-.02-.44,0-.65l.71-.86c-.23.22-.46.44-.69.66.02-.16.04-.3.05-.4-.07,0-.14.02-.22.04l1.61-1.68c-.48.52-1.15,1.05-1.76,1.6.11-.12.22-.26.3-.4-.12,0-.21,0-.29.05l.09-.2c.28-.22.57-.45.86-.65l-.85.62.85-1.81c-.24.49-.54.95-.83,1.42.01-.1.02-.21.04-.32-.18.16-.35.35-.54.47.03-.07.06-.14.08-.21l1.12-2.17c-.33.59-.71,1.14-1.06,1.7,0-.12,0-.24-.01-.36-.08.1-.24.17-.33.28-.02-.06-.03-.11-.04-.17l1.18-1.98c-.43.54-.86,1.12-1.23,1.72-.05-.33-.03-.64.24-.94-.04,0-.07,0-.1,0l.97-1.58c-.46.45-.91.99-1.28,1.58-.08,0-.15.01-.22.04.06-.12.09-.31.13-.43-.03,0-.05-.02-.07-.02l.43-.74.47-.41c-.15.1-.29.22-.43.34l.43-.74c-.17.28-.35.55-.54.82-.19.17-.38.35-.56.53l.49-.43c-.13.2-.27.4-.4.6-.06-.02-.12-.06-.17-.09.03-.02.05-.05.08-.07l-.08.07c-.06-.04-.12-.09-.17-.15l.96-1.31.4-.36c-.08.03-.15.08-.22.12l.09-.12s-.07.09-.1.13c-.53.29-.99.76-1.38,1.23-.05-.07-.09-.14-.13-.21l.31-.47,1.18-1.07c-.35.22-.71.53-1.04.86l.64-.99c-.43.47-.81,1-1.15,1.56,0,0,0,0,0,.01-.13-.21-.24-.43-.35-.59,0,.38.03.76.05,1.14-.09.18-.18.35-.26.53l.26-.41c.01.3.02.6.04.9l-.04.03s.03-.02.04-.03c0,.02,0,.04,0,.06l-.17.24c.05-.06.11-.14.17-.22.06.91.12,1.81.21,2.72.15,1.64.41,3.45,1.09,5.03,0,0-.01.01-.01.02v-.02c.12.24.23.48.35.71-.03.03-.06.07-.09.1l.09-.09c.11.2.24.4.37.59-.33.75-.01,1.83.93,1.14.03-.02.05-.05.08-.07.02.07.04.14.07.21-.17.24-.3.49-.35.75l.44-.48c.05.14.12.28.17.42-.1.22-.14.42-.09.59l.22-.27c.15.34.31.69.48,1.03-.03.07-.06.13-.09.21-.06.13.06-.01.13-.11.07.14.13.28.2.42.67,1.48,1.86,2.51,3.13,3.47,1.73,1.31,3.73,2.19,5.88,2.47,1.5.19,3.14.4,4.68.17.09.08.16.15.21.18.59.41,1.37.57,2.05.79,1.18.37,2.28.59,3.52.54,5.15-.2,11.02-1.78,14.64-5.69.03-.03.07-.07.11-.12l-.02.12c.09.17.2.33.31.49,1.13-.28,1.87-.69,2.42-1.78.77-1.52,1.5-2.95,2.03-4.57.05.08.09.15.04,0,0-.01-.02-.03-.03-.05,0-.03.03-.07.04-.1.05-.14.1-.29.14-.43l.65.71c-.15-.33-.34-.65-.56-.97.04-.12.08-.24.12-.36l.12.19c-.03-.09-.07-.17-.1-.25.07-.19.13-.38.19-.57l.23.37c.02-.2-.03-.45-.11-.72.03-.09.06-.17.09-.26l.16.31c.19-.1.15-.41,0-.79.04-.13.08-.25.12-.38l.14.24c.15.01.08-.21-.06-.49.05-.16.1-.31.15-.47.08.21.15.33.18.17l-.16-.22c.03-.11.07-.21.1-.32.09.21.16.32.19.14l-.16-.25c.07-.24.12-.48.18-.72.11.2.19.33.25.31l-.24-.34c.06-.24.13-.47.18-.71.05-.23.09-.48.13-.74l.07.07s-.04-.05-.07-.08c0-.04,0-.08.01-.13l.05.08ZM103.98,163.77l-.12-.19c.06.03.11.06.17.1-.02.03-.03.06-.04.09ZM62.94,166.48c-.08,0-.14-.02-.21-.05l1.03-1.2c-.32.52-.62,1.05-.9,1.6-.12,0-.25.03-.37.08.13-.13.31-.29.44-.43ZM60.42,160.63l1.12-1.02c-.3.4-.61.84-.91,1.27-.07-.07-.14-.15-.21-.24ZM65.48,168.4l-.68,1.09c-.3.24-.58.49-.86.75-.04,0-.08.01-.12.02l.34-.54,1.32-1.32ZM63.03,168.22l-.03.16s-.08.03-.12.04l.15-.2ZM63,169.37s-.1.03-.15.04c.09-.18.16-.36.23-.54l.25-.24c-.13.25-.23.49-.33.74ZM63.35,169.86c-.08.01-.17.02-.25.03,0-.02.02-.06.02-.08l.73-.65c-.18.23-.34.47-.5.7ZM63.4,169.85l.49-.72.85-.76c-.13.2-.25.39-.37.59-.31.28-.61.58-.88.88-.03,0-.06,0-.09.01ZM63.6,170.31s-.03,0-.04.01l.07-.07s-.02.04-.03.06ZM63.81,170.73l.58-.58-.35.56c-.08,0-.16.02-.23.02ZM65.6,172.95l1.14-1.72-1.07,2.15c-.08-.12-.11-.27-.07-.43ZM67.61,174.95c.11-.09.19-.19.34-.25,0-.02,0-.11,0-.13-.07-.02-.13-.03-.2-.04l.04-.1.96-1.14c-.27.51-.57,1.09-.81,1.67-.13,0-.25,0-.33,0ZM68.44,175.41c-.06-.02-.13-.03-.18-.05.23-.24.14-.33-.04-.38l.09-.25.88-1.13c-.23.44-.41.91-.54,1.41-.08.13-.15.26-.22.39ZM69.16,175.3c-.05.06-.09.12-.13.18-.09,0-.17,0-.25-.01l.07-.26.56-.75c-.1.27-.18.55-.25.84ZM69.49,175.4l.44-.65c-.06.18-.11.37-.16.56,0-.02,0-.03,0-.04-.08.06-.18.1-.28.13ZM69.88,175.81l.02-.1.72-.96c-.07.3-.16.65-.25.99,0-.03,0-.06,0-.09-.17.03-.33.1-.49.16ZM70.7,176.02l.33-.46c-.02.13-.03.26-.05.4-.1,0-.19.03-.29.06ZM72.44,176.54c-.13-.04-.26-.07-.4-.09v-.07l.52-.7c-.04.24-.08.55-.12.86ZM74.33,177.07l.05-.08c0,.06,0,.12,0,.18-.02-.03-.03-.06-.06-.09ZM75.07,177.07c-.08.03-.16.06-.25.1l.25-.57c0,.15,0,.3,0,.47ZM94.9,175.81l-.08-.22.16.25s-.05-.02-.08-.03ZM95.69,175.48s-.07-.1-.11-.14c0-.09,0-.18,0-.27l-.03-.14.43.46c-.1.04-.2.06-.3.09ZM97.13,174.51c-.17-.12-.34-.24-.52-.33-.04-.51-.16-1-.3-1.49l.42.81c.05.22.11.44.17.65l-.06-.45.41.78s-.08.02-.11.03ZM98.07,174.18c-.05-.13-.11-.26-.16-.39.29.16.3.28.16.39ZM99.9,171.94c0,.06-.03.13-.04.19-.05-.15-.09-.31-.15-.46l.28.25s-.06.01-.09.01ZM100.22,171.82c-.14-.16-.28-.33-.43-.48.05-.24-.05-.38-.11-.64l-.11-.28.35.33c0,.05.02.11.03.16,0-.04,0-.08,0-.13l.59.56c-.05.18-.16.36-.31.47ZM100.87,170.98l-.14-.34.26.27s-.08.05-.12.07ZM101.05,170.86c-.14-.17-.28-.34-.43-.5l-.27-.68c.07.21.15.42.22.63-.29-.31-.59-.61-.95-.86-.09-.37-.2-.73-.32-1.09l.97,1.14.07.18c-.02-.05-.04-.11-.06-.16l.97,1.14c-.07.08-.14.15-.21.21ZM101.39,170.49c-.08-.12-.15-.24-.23-.36l.28.29s-.03.04-.05.06ZM101.84,169.72c-.52-.61-1.13-1.13-1.63-1.13l1.46,1.46s-.05.1-.08.14c-.33-.35-.71-.71-1.06-.97-.19-.26-.39-.5-.61-.73-.19-.52-.4-1.04-.62-1.54.52.41,1.01.86,1.46,1.35-.1-.04-.19-.09-.28-.12l1.42,1.42s-.04.07-.05.11ZM93.07,173.48l.87,1.73c-.21-.63-.36-1.32-.87-1.73ZM93.93,175.22c.11.34.24.66.46.91l-.46-.91ZM70.97,173.21c.37-.44.67-.85.8-1.18l-.8,1.18ZM68.2,170.18l-1.61,3.13c.79-1.3,1.77-2.78,1.61-3.13ZM66.86,170.08c.37-.51.75-1.07.67-1.22l-.67,1.22ZM66.35,169.65l-.39.47c.21-.18.4-.34.53-.47.12-.14.07-.14-.14,0ZM63.26,166.47c.49-.5.97-1.01,1.37-1.58l-1.37,1.58ZM64.42,165.23c.27-.37.53-.74.74-1.14l-.74,1.14ZM67.84,173.65l1.28-2.42c-.53.74-.9,1.58-1.28,2.42ZM72.96,175.93c.21-.26.38-.48.39-.59l-.39.59ZM63.08,164.28c.4-.4.78-.8,1.02-1.24l-1.02,1.24ZM73.89,175.6l-.28.48c.25-.31.41-.52.28-.48Z"/>
  <path class="cls-10" d="M78.91,146.02c-3.18-.11-6.24.3-9.4.41-2.48.09-4.89-.18-7.33.48-.88.24-1.83.47-2.51,1.1-1.28,1.18-1.65,2.81-1.59,4.5l1.26,1.32c.01-.91-.15-1.72.25-2.57.03.38-.04.8.08,1.16-.02-1.45.46-3.79,2.35-3.67-.12.09-.24.29-.37.37.67.05,1.46-.31,2.03-.64-.06.29-.38.54-.53.59.89-.3,1.98-.37,2.91-.45-.16.26-.45.51-.77.59.88.07,1.74-.27,2.55-.46-.11.16-.3.31-.5.4.92-.21,1.92-.38,2.88-.32-.15.2-.43.39-.7.45.58,0,1.08,0,1.63-.2.59-.21,1.13-.57,1.78-.45-.18.25-.49.53-.83.52,1.17,0,2.41.01,3.53-.19-.15.21-.43.4-.63.5,1.33-.27,2.68-.33,3.95-.71-.08.17-.1.32-.29.46.81-.49,2.23-1.01,3.19-.85-.19.12-.33.29-.49.44.7.03,2.57-.75,2.3-1.51-.49-1.36-3.74-1.24-4.77-1.27ZM107.09,149.15c-.43-.62-1.54-1.01-2.24-1.12-3.52-.57-7.21-.02-10.72-.74-1.29-.26-4.15-1.38-5.22-.58l.33,1.19c.55.59,1.8.93,2.57,1.05-.08-.06-.2-.19-.3-.26,1.51.2,3.5.13,4.79,1.04-.06-.08-.13-.27-.23-.38.94.35,1.66.53,2.67.54-.21-.05-.42-.12-.62-.2,1.17.1,2.26.38,3.47.4-.2-.08-.42-.2-.57-.32,1.09.18,2.1.07,3.17-.08.69-.1,2.6-.33,1.66.85.79-.04,1.79-.59,1.25-1.38Z"/>
  <path class="cls-10" d="M76.66,178.78c-.07-.12-.15-.62-.14-.92-.36-.02-.74-.02-1.1,0,.16.87-.94.92-.62-.06-.02-.03-.04-.04-.07-.05-.24.2-.49.36-.65.62,0-.37.03-.74.06-1.1-.43-.1-.89-.08-1.3-.27.03.34-.1.66-.21.96-.26-.32-.29-.69-.28-1.09-.71-.13-1.14-.2-1.69.3-.09-.24-.1-.51-.09-.77-.23.09-.42.28-.52.5-.06-.3-.23-.6-.33-.88-.21.29-.58.4-.92.43,0-.28.15-.5.31-.71-.63-.06-1.2-.26-1.82-.02.06-.24.19-.46.35-.65-.27.05-.6.15-.83.37-.03-.26,0-.52.04-.77-.33.21-.7.2-1.09.19.21-.16.41-.29.61-.45-.57-.3-1.12-.7-1.11-1.45-.31.16-.65.53-.8.83-.62-.35-.37-1.26.02-1.69-.25.15-.51.29-.73.49-.05-.52.28-.91.46-1.34-.37.08-.77.2-1.12.36.1-.31.35-.59.58-.81-.34,0-.87.19-1.19.46.14-.44.38-.85.54-1.28-.14.2-.35.28-.59.23.17-.56.41-1.09.58-1.64-.36.09-.75.33-1.04.57.1-.45.46-1.12.83-1.43-.34.07-.74.33-1.01.56.14-.48.28-.92.68-1.22-.24.06-.53.17-.78.23.17-.27.35-.52.6-.72-.27-.41-.43-1.05-.4-1.56-.24.01-.47,0-.69-.08.12,0,.29-.12.43-.14.01-.3.02-.61,0-.91-.3.1-.69.06-1.03.06.27-.08.46-.26.7-.41-.12-.42-.37-.9-.4-1.36-.2.04-.41.03-.63.06.19-.12.35-.24.55-.33-.78-.94-.88-2.1-1.23-3.22.15.81.01,1.65-.13,2.43v.4c.17.3-.19.84-.24,1.17.13-.05.25,0,.38-.02-.09.49-.16,1.01-.24,1.51.43-.6.46.52.45.75-.02.57-.23,1.07-.34,1.59.1-.03.24,0,.32,0-.2.4-.37.78-.33,1.24.41-.55.61-.16.5.32-.1.43-.35.98-.74,1.17.17.08.37.07.53.02.02.57-.4,1.05-.53,1.57.19-.06.4-.16.62-.15-.25.38-.44.99-.47,1.44.24-.1.48-.22.73-.23-.16.2-.36.44-.64.5.42.74.17,1.58.14,2.4.09-.26.33-.36.53-.52-.12.42-.17.79-.18,1.23l.35-.3-.15.5c-.02.15,0,.31,0,.46.18-.21.41-.33.58-.49-.32.3-.44,1.01-.39,1.58.24-.24.5-.37.79-.52-.24.43-.27.92.04,1.35.07-.17.36-.42.45-.58.13.58.36,1.15.7,1.65.07-.28.21-.39.32-.63-.03.65-.04,1.35.37,1.84.06-.32.22-.57.4-.85.05.73.88,1.29.83,1.94.22-.16.45-.23.67-.45,0,.39.02.79.13,1.15.12-.2.39-.39.55-.58.03.91.61,1.92,1.39,2.36.08-.31.2-.55.24-.88.18.32.21.85.19,1.27.38-.13.87-.42.98-.6.1.4-.07.72-.39.89.6.03,2.93.05,2.48.99.48.03,1.02.08,1.45-.07.18.43.57.66.92.95,0-.22.13-.42.11-.65.5.45,1.2.59,1.78.95-.08-.27-.08-.49-.23-.74-.04-.04-.04-.04,0,0,.61.64,1.76.73,2.6.69-.1.11-.16.32-.35.46.56.02,1.23-.1,1.66-.47,0,.17.14.44.11.67.86-.54.99-.12,1.86.2-.05-.24.01-.54-.07-.77.99.34,2.14.79,3.14.2-.08.16-.11.38-.25.57.51-.04,1.03-.38,1.44-.67,0,.23.15.41.13.67.26-.17.48-.31.61-.65.23.36.62.61,1.05.55-.06-.18,0-.49-.07-.67.45.11.89.39,1.37.47-.18-.25-.18-.52-.27-.77.39.16.69.46.88.85.28-.39.73-.66,1.09-.97.16.27.35.37.32.77.41-.2.78-.5,1.15-.74.07.25.25.44.24.74.47-.25.92-.6,1.08-1.12.24.27.5.54.77.74-.04-.28.03-.5-.07-.76.34.02,1.04.11,1.18.08l.4.2c.2-.37.24-.81.19-1.25.21.27.44.51.69.73.36-.37.36-.95.88-1.15-.03.17.06.4.03.58.74-.27,1.06-.78.99-1.57.13.14.43.27.57.46.02-.37,0-.77.03-1.15.3.06.65.15.96.25-.05-.39-.11-.8-.09-1.22.2.28.32.32.42.65.46-.52.96-1.47.86-2.24.08.21.31.49.38.66.19-.38.33-.77.45-1.17.15.26.27.39.27.75.25-.57.55-1.35.31-1.94.31.02.66-.06.97-.03-.1-.14-.19-.47-.27-.57.25.16.55.22.78.45-.05-.39-.02-.79.11-1.15.31.23.4.22.47.65.12-.69,1-1.17.61-1.91.28.14.59.25.87.42-.08-.21-.08-.62-.17-.84.35.01.73.12,1.07.17-.2-.35-.55-.61-.66-1-.14-.48.13-.75-.11-1.13.32.16.55.41.69.73.05-.59-.24-1.3-.59-1.74.25.09.52.09.77.27-.15-.67-.34-1.09-.84-1.58.29.16.52.21.76.47-.19-1,.28-2.86-.49-3.59.3.15.57.27.77.54-.24-.57.02-1.31-.54-1.69.15.1.38.16.54.27-.21-.59-.19-1.2-.67-1.73.28.05.59-.02.87.07-.06-1.02.28-1.94-.79-2.47.16.02.35-.04.5-.02-.06-.48-.61-.98-.88-1.37l-.83-.99c.14.54.24,1.23.28,1.77.2.01.38.14.51.19-.54.43-.68.35-.91,1,.26-.05.52,0,.66.21-.13.2-.35.32-.59.34,0,.48-.35.99-.46,1.44.26-.04.52,0,.65.2-.31.1-.59.27-.91.35,0,.47-.12.89-.45,1.24.29.06.57.11.82.26-.39.13-.84.06-1.15.33.33.04.66.17.95.34-.38.1-.9.08-1.16.34-.16.16-.1.52-.32.72.26.04.5.15.68.33-.3,0-.6-.01-.89,0-.03.42-.4.68-.55,1.04-.08,0-.16.02-.23.02.19.06.31.21.44.3-.33.04-.66.15-.97.28.28.09.47.3.5.59-.08-.1-.28-.17-.39-.27-.57.57-1.31.66-1.07,1.59-.36.06-.71.06-1.09.09.26.22.48.5.5.84-.33.13-.69.21-1.04.23.13.11.28.29.43.39-.4-.3-1.12.15-1.62.14.25.16.51.4.65.69-.34-.11-.68-.26-1.03-.31.31.19.56.46.69.79-.22-.17-.57-.51-.85-.51-.31,0-.71.46-1.05.53.18.39-.17.87-.34,1.22-.05-.23-.08-.45-.14-.69-.24.28-.4.61-.51.95-.04-.2-.1-.41-.08-.63-.15-.04-.43-.04-.58,0-.03.31-.16.65-.26.91-.22-.75-.52-.72-1.23-.41-.48.21-.5.25-.66.85-.11-.18-.24-.35-.32-.55-.01.14-.13.35-.15.5-.36-.34-.73-.31-1.22-.33.17.16.27.37.3.58-.55-.32-.81-.56-1.44-.36.13.22.16.51.05.76-.45-.57-.83-.9-1.5-.56.09.26.07.53-.07.72-.19-.28-.28-.69-.48-1-.31.12-.68.25-1.03.27-.01.35-.17.67-.33.96,0-.34-.07-.68-.09-1.02-.25.25-.5.53-.58.89,0-.32,0-.65,0-.96-.47.05-.96.15-1.44.2.08.27.09.56,0,.83-.1-.3-.34-.72-.48-.9.02.28.04.57-.03.83-.24-.25-.48-.51-.63-.83-.32.07-.64.08-.9-.07-.04.31-.17.68-.33.91.01-.36-.08-.68-.29-.98-.34.08-.93-.09-1.25.06-.3.14-.33.56-.7.6.09-.26.14-.58.11-.87-.05.12-.37.45-.54.65.08-.25.1-.51.18-.76-.47.02-.94-.09-1.42-.07-.01.26,0,.52,0,.78l-.33-.13Z"/>
  <path class="cls-10" d="M86.14,148.7c.15-.14.25-.31.37-.47-.45.31-1.4.16-1.45-.47l-.26.33c-.08.19-.12.36-.26.52.43.11.6.84.93.93.34.09,1.22-.63,1.32-.96-.19.16-.43.21-.65.13ZM84.75,147.03c-.06-.71-.22-1.33-.15-2.05.06-.62.2-1.27.13-1.92-.06-.63-.35-1.19-.34-1.84-.88-.16-1.69-.59-2.49-1.04-.57,1.13-2.34,1.72-3.45,2.21-1.63.71-3.35,1.15-4.89,2.04.24-.27.57-.45.83-.71-1.07.28-2.04.73-3.14.93-1.08.19-2.15.51-3.17.85.19-.35.52-.57.88-.72-.96.14-1.93.48-2.87.67-1.04.21-2.01.46-2.99.96.13-.12.24-.3.37-.43-.62.13-1.2.52-1.83.65-.58.12-1.14.1-1.65.41-.77.46-1.64,2.41-2.63,1.85.04.85-.58,1.67-.35,2.48-.34-.11-.5-.4-.45-.75,0,.83-.29,1.7-.25,2.49.04.8.97,1.54,1.68,1.85-.26,0-.51-.09-.75-.13.8.66,1.36,1.42,2.03,2.11l.2-.07c0-.77.23-1.48.12-2.25-.13-.93-.48-1.67-.45-2.66.07-2.01,1.22-4.29,3.49-4.2-.25.19-.53.37-.82.52,1.12.07,2.25-.21,3.26-.6-.26.31-.55.61-.95.74,1.44-.02,2.98-.86,4.39-.13-.25.02-.5.1-.75.13,1.1.19,2.36.09,3.41-.26-.09.27-.45.47-.76.52,1.12.02,2.14-.37,3.23-.22,1.1.16,2.29.19,3.29-.36-.1.36-.67.56-.98.69.88.12,1.7-.41,2.43-.77.05.39-.35.65-.69.79.97-.36,2.09-.71,3.08-.67.8.04,1.23,0,1.91-.52-.12.36-.5.58-.78.82.35-.13,2.67-1.01,1.92.18.73-.51,1.01-.73.93-1.61ZM103.03,146.12h0s0,0,0,0c-.02-.02-.03-.02,0,0ZM108.74,151.87c-.16-.35-.12-.92-.26-1.31-.16-.44-.39-.86-.56-1.29.19.05.41-.04.31-.31-.09-.26-.52-.28-.75-.39-.67-.32-1.18-.88-1.84-1.2-.23-.11-.43-.09-.66-.21-.21-.11-.43-.32-.66-.44-.41-.22-.88-.36-1.28-.6.09.61-1.04.25-1.3.13.16,0,.28-.06.44-.08-1.56-.84-3.2-.45-4.75-1.1.18.13.36.31.46.49-1.08-.58-2.5-.67-3.47-1.39.16.16.25.36.25.58-.8-.91-1.99-1.12-2.89-1.9.16.26,0,.21-.02.41-.59-.31-1-.86-1.52-1.25-.43-.32-1.2-.52-1.25-1.12-.32.16-1.27.49-1.45.78-.23.38-.06,1.45-.08,1.9-.06,1.3-1.04,3.08-.26,4.3l.2.26c.01.14-.01.24.19.38,0-.2.11-.31.16-.5.59.24,1.19.63,1.9.37-.03-.13.05-.31.02-.44.52.02,1.05.33,1.57.37-.1-.1-.23-.3-.32-.38.97.64,2.22.71,3.35.77,1.13.07,1.98.36,3.03.68-.12-.21-.3-.42-.43-.6,1.07.62,2.36.81,3.61.92-.3-.1-.6-.22-.82-.45.66-.1,1.28.15,1.93.08-.09.02-.18.03-.27.05.68,0,1.43.09,2.1-.02.65-.11,1.19-.5,1.84-.58.41-.05.82.02,1.23.09.33.66-.17,1.59-.61,2.08.12-.05.31-.04.44-.11.01.83-.68,1.51-1.04,2.18-.38.71-1.23,1.14-1.51,1.92-.26.73.16,1.58.12,2.38-.05.98.01,1.77.27,2.69-.01-.87-.29-2.14.64-2.57-.14.08-.3.09-.43.13.13-.68.31-1.42.92-1.89-.04.19,0,.36-.08.55.41-.3.63-.93.6-1.41.02.18.08.36.08.55.53-.91,1.84-1.2,1.9-2.34.1.21.08.48.01.69.59-.65.68-1.5.53-2.27.19.1.42.31.45.39Z"/>
  <path class="cls-11" d="M76.66,178.78c-.07-.12-.15-.62-.14-.92-.36-.02-.74-.02-1.1,0,.16.87-.94.92-.62-.06-.02-.03-.04-.04-.07-.05-.24.2-.49.36-.65.62,0-.37.03-.74.06-1.1-.43-.1-.89-.08-1.3-.27.03.34-.1.66-.21.96-.26-.32-.29-.69-.28-1.09-.71-.13-1.14-.2-1.69.3-.09-.24-.1-.51-.09-.77-.23.09-.42.28-.52.5-.06-.3-.23-.6-.33-.88-.21.29-.58.4-.92.43,0-.28.15-.5.31-.71-.63-.06-1.2-.26-1.82-.02.06-.24.19-.46.35-.65-.27.05-.6.15-.83.37-.03-.26,0-.52.04-.77-.33.21-.7.2-1.09.19.21-.16.41-.29.61-.45-.57-.3-1.12-.7-1.11-1.45-.31.16-.65.53-.8.83-.62-.35-.37-1.26.02-1.69-.25.15-.51.29-.73.49-.05-.52.28-.91.46-1.34-.37.08-.77.2-1.12.36.1-.31.35-.59.58-.81-.34,0-.87.19-1.19.46.14-.44.38-.85.54-1.28-.14.2-.35.28-.59.23.17-.56.41-1.09.58-1.64-.36.09-.75.33-1.04.57.1-.45.46-1.12.83-1.43-.34.07-.74.33-1.01.56.14-.48.28-.92.68-1.22-.24.06-.53.17-.78.23.17-.27.35-.52.6-.72-.27-.41-.43-1.05-.4-1.56-.24.01-.47,0-.69-.08.12,0,.29-.12.43-.14.01-.3.02-.61,0-.91-.3.1-.69.06-1.03.06.27-.08.46-.26.7-.41-.12-.42-.37-.9-.4-1.36-.2.04-.41.03-.63.06.19-.12.35-.24.55-.33-.78-.94-.88-2.1-1.23-3.22.15.81.01,1.65-.13,2.43v.4c.17.3-.19.84-.24,1.17.13-.05.25,0,.38-.02-.09.49-.16,1.01-.24,1.51.43-.6.46.52.45.75-.02.57-.23,1.07-.34,1.59.1-.03.24,0,.32,0-.2.4-.37.78-.33,1.24.41-.55.61-.16.5.32-.1.43-.35.98-.74,1.17.17.08.37.07.53.02.02.57-.4,1.05-.53,1.57.19-.06.4-.16.62-.15-.25.38-.44.99-.47,1.44.24-.1.48-.22.73-.23-.16.2-.36.44-.64.5.42.74.17,1.58.14,2.4.09-.26.33-.36.53-.52-.12.42-.17.79-.18,1.23l.35-.3-.15.5c-.02.15,0,.31,0,.46.18-.21.41-.33.58-.49-.32.3-.44,1.01-.39,1.58.24-.24.5-.37.79-.52-.24.43-.27.92.04,1.35.07-.17.36-.42.45-.58.13.58.36,1.15.7,1.65.07-.28.21-.39.32-.63-.03.65-.04,1.35.37,1.84.06-.32.22-.57.4-.85.05.73.88,1.29.83,1.94.22-.16.45-.23.67-.45,0,.39.02.79.13,1.15.12-.2.39-.39.55-.58.03.91.61,1.92,1.39,2.36.08-.31.2-.55.24-.88.18.32.21.85.19,1.27.38-.13.87-.42.98-.6.1.4-.07.72-.39.89.6.03,2.93.05,2.48.99.48.03,1.02.08,1.45-.07.18.43.57.66.92.95,0-.22.13-.42.11-.65.5.45,1.2.59,1.78.95-.08-.27-.08-.49-.23-.74-.04-.04-.04-.04,0,0,.61.64,1.76.73,2.6.69-.1.11-.16.32-.35.46.56.02,1.23-.1,1.66-.47,0,.17.14.44.11.67.86-.54.99-.12,1.86.2-.05-.24.01-.54-.07-.77.99.34,2.14.79,3.14.2-.08.16-.11.38-.25.57.51-.04,1.03-.38,1.44-.67,0,.23.15.41.13.67.26-.17.48-.31.61-.65.23.36.62.61,1.05.55-.06-.18,0-.49-.07-.67.45.11.89.39,1.37.47-.18-.25-.18-.52-.27-.77.39.16.69.46.88.85.28-.39.73-.66,1.09-.97.16.27.35.37.32.77.41-.2.78-.5,1.15-.74.07.25.25.44.24.74.47-.25.92-.6,1.08-1.12.24.27.5.54.77.74-.04-.28.03-.5-.07-.76.34.02,1.04.11,1.18.08l.4.2c.2-.37.24-.81.19-1.25.21.27.44.51.69.73.36-.37.36-.95.88-1.15-.03.17.06.4.03.58.74-.27,1.06-.78.99-1.57.13.14.43.27.57.46.02-.37,0-.77.03-1.15.3.06.65.15.96.25-.05-.39-.11-.8-.09-1.22.2.28.32.32.42.65.46-.52.96-1.47.86-2.24.08.21.31.49.38.66.19-.38.33-.77.45-1.17.15.26.27.39.27.75.25-.57.55-1.35.31-1.94.31.02.66-.06.97-.03-.1-.14-.19-.47-.27-.57.25.16.55.22.78.45-.05-.39-.02-.79.11-1.15.31.23.4.22.47.65.12-.69,1-1.17.61-1.91.28.14.59.25.87.42-.08-.21-.08-.62-.17-.84.35.01.73.12,1.07.17-.2-.35-.55-.61-.66-1-.14-.48.13-.75-.11-1.13.32.16.55.41.69.73.05-.59-.24-1.3-.59-1.74.25.09.52.09.77.27-.15-.67-.34-1.09-.84-1.58.29.16.52.21.76.47-.19-1,.28-2.86-.49-3.59.3.15.57.27.77.54-.24-.57.02-1.31-.54-1.69.15.1.38.16.54.27-.21-.59-.19-1.2-.67-1.73.28.05.59-.02.87.07-.06-1.02.28-1.94-.79-2.47.16.02.35-.04.5-.02-.06-.48-.61-.98-.88-1.37l-.83-.99c.14.54.24,1.23.28,1.77.2.01.38.14.51.19-.54.43-.68.35-.91,1,.26-.05.52,0,.66.21-.13.2-.35.32-.59.34,0,.48-.35.99-.46,1.44.26-.04.52,0,.65.2-.31.1-.59.27-.91.35,0,.47-.12.89-.45,1.24.29.06.57.11.82.26-.39.13-.84.06-1.15.33.33.04.66.17.95.34-.38.1-.9.08-1.16.34-.16.16-.1.52-.32.72.26.04.5.15.68.33-.3,0-.6-.01-.89,0-.03.42-.4.68-.55,1.04-.08,0-.16.02-.23.02.19.06.31.21.44.3-.33.04-.66.15-.97.28.28.09.47.3.5.59-.08-.1-.28-.17-.39-.27-.57.57-1.31.66-1.07,1.59-.36.06-.71.06-1.09.09.26.22.48.5.5.84-.33.13-.69.21-1.04.23.13.11.28.29.43.39-.4-.3-1.12.15-1.62.14.25.16.51.4.65.69-.34-.11-.68-.26-1.03-.31.31.19.56.46.69.79-.22-.17-.57-.51-.85-.51-.31,0-.71.46-1.05.53.18.39-.17.87-.34,1.22-.05-.23-.08-.45-.14-.69-.24.28-.4.61-.51.95-.04-.2-.1-.41-.08-.63-.15-.04-.43-.04-.58,0-.03.31-.16.65-.26.91-.22-.75-.52-.72-1.23-.41-.48.21-.5.25-.66.85-.11-.18-.24-.35-.32-.55-.01.14-.13.35-.15.5-.36-.34-.73-.31-1.22-.33.17.16.27.37.3.58-.55-.32-.81-.56-1.44-.36.13.22.16.51.05.76-.45-.57-.83-.9-1.5-.56.09.26.07.53-.07.72-.19-.28-.28-.69-.48-1-.31.12-.68.25-1.03.27-.01.35-.17.67-.33.96,0-.34-.07-.68-.09-1.02-.25.25-.5.53-.58.89,0-.32,0-.65,0-.96-.47.05-.96.15-1.44.2.08.27.09.56,0,.83-.1-.3-.34-.72-.48-.9.02.28.04.57-.03.83-.24-.25-.48-.51-.63-.83-.32.07-.64.08-.9-.07-.04.31-.17.68-.33.91.01-.36-.08-.68-.29-.98-.34.08-.93-.09-1.25.06-.3.14-.33.56-.7.6.09-.26.14-.58.11-.87-.05.12-.37.45-.54.65.08-.25.1-.51.18-.76-.47.02-.94-.09-1.42-.07-.01.26,0,.52,0,.78l-.33-.13Z"/>
  <path class="cls-8" d="M76.99,163.43c.72.33,1.45.37,2.24.41-.05.13-.05.36-.13.49.21-.08.42-.27.54-.45.96.45,2.42-.21,3.29.4-.02-.07-.03-.17-.05-.24,1.16-.08,2.22-.16,3.29-.34-.04.08-.05.19-.13.3.53-.66,2.26-.2,3.04-.34-.06.06-.13.17-.19.22.88.14,2.09-.08,2.95-.24-.34.3-.6.69-.94.98.32.02.6-.1.84-.31-.11.57-.69.63-1.07.9.13.15.16.35.27.52-.17-.07-.39-.03-.58-.04-.02.31-.22.57-.45.77.15-.02.34.04.49.02-.3.31-.59.51-1.03.59-.02.25-.11.51-.27.7-.07-.1-.19-.13-.27-.22-.04.42-.33.73-.61,1.03-.03-.08-.15-.19-.18-.31-.09.39-.45.71-.71,1.02-.04-.14-.17-.28-.22-.42-.07.21-.17.43-.27.63-.35,0-.75-.19-1.05-.36.04.13-.03.3,0,.43-.45.02-.93-.28-1.16-.65-.11.2-.12.43-.04.65-.27-.05-.6-.08-.89-.07-.04-.27,0-.58.04-.83-.2.27-.37.64-.5.9,0-.29-.01-.62-.09-.9-.29.21-.37.56-.34.9-.36-.18-.79-.31-1.16-.47-.02-.27.05-.51.04-.78-.24.13-.39.37-.4.65-.18-.28-.25-.66-.25-1.03-.11.27-.23.52-.52.61.02-.24.06-.49.06-.75-.11.17-.31.24-.45.36-.29-.43-.59-.8-.93-1.16.11-.06.23-.22.32-.27-.22,0-.41.03-.59.19-.28-.28-.39-.68-.71-.95.29-.13.58-.28.7-.56-.4-.04-.67.25-1.05.24.21-.19.49-.37.58-.64-.34.07-.69.19-1.04.04.12-.18.27-.37.38-.57-.67-.23-.64-.84-1.18-1.14l.4.07Z"/>
  <path class="cls-7" d="M86.14,148.7c.15-.14.25-.31.37-.47-.45.31-1.4.16-1.45-.47l-.26.33c-.08.19-.12.36-.26.52.43.11.6.84.93.93.34.09,1.22-.63,1.32-.96-.19.16-.43.21-.65.13ZM84.75,147.03c-.06-.71-.22-1.33-.15-2.05.06-.62.2-1.27.13-1.92-.06-.63-.35-1.19-.34-1.84-.88-.16-1.69-.59-2.49-1.04-.57,1.13-2.34,1.72-3.45,2.21-1.63.71-3.35,1.15-4.89,2.04.24-.27.57-.45.83-.71-1.07.28-2.04.73-3.14.93-1.08.19-2.15.51-3.17.85.19-.35.52-.57.88-.72-.96.14-1.93.48-2.87.67-1.04.21-2.01.46-2.99.96.13-.12.24-.3.37-.43-.62.13-1.2.52-1.83.65-.58.12-1.14.1-1.65.41-.77.46-1.64,2.41-2.63,1.85.04.85-.58,1.67-.35,2.48-.34-.11-.5-.4-.45-.75,0,.83-.29,1.7-.25,2.49.04.8.97,1.54,1.68,1.85-.26,0-.51-.09-.75-.13.8.66,1.36,1.42,2.03,2.11l.2-.07c0-.77.23-1.48.12-2.25-.13-.93-.48-1.67-.45-2.66.07-2.01,1.22-4.29,3.49-4.2-.25.19-.53.37-.82.52,1.12.07,2.25-.21,3.26-.6-.26.31-.55.61-.95.74,1.44-.02,2.98-.86,4.39-.13-.25.02-.5.1-.75.13,1.1.19,2.36.09,3.41-.26-.09.27-.45.47-.76.52,1.12.02,2.14-.37,3.23-.22,1.1.16,2.29.19,3.29-.36-.1.36-.67.56-.98.69.88.12,1.7-.41,2.43-.77.05.39-.35.65-.69.79.97-.36,2.09-.71,3.08-.67.8.04,1.23,0,1.91-.52-.12.36-.5.58-.78.82.35-.13,2.67-1.01,1.92.18.73-.51,1.01-.73.93-1.61ZM103.03,146.12h0s0,0,0,0c-.02-.02-.03-.02,0,0ZM108.74,151.87c-.16-.35-.12-.92-.26-1.31-.16-.44-.39-.86-.56-1.29.19.05.41-.04.31-.31-.09-.26-.52-.28-.75-.39-.67-.32-1.18-.88-1.84-1.2-.23-.11-.43-.09-.66-.21-.21-.11-.43-.32-.66-.44-.41-.22-.88-.36-1.28-.6.09.61-1.04.25-1.3.13.16,0,.28-.06.44-.08-1.56-.84-3.2-.45-4.75-1.1.18.13.36.31.46.49-1.08-.58-2.5-.67-3.47-1.39.16.16.25.36.25.58-.8-.91-1.99-1.12-2.89-1.9.16.26,0,.21-.02.41-.59-.31-1-.86-1.52-1.25-.43-.32-1.2-.52-1.25-1.12-.32.16-1.27.49-1.45.78-.23.38-.06,1.45-.08,1.9-.06,1.3-1.04,3.08-.26,4.3l.2.26c.01.14-.01.24.19.38,0-.2.11-.31.16-.5.59.24,1.19.63,1.9.37-.03-.13.05-.31.02-.44.52.02,1.05.33,1.57.37-.1-.1-.23-.3-.32-.38.97.64,2.22.71,3.35.77,1.13.07,1.98.36,3.03.68-.12-.21-.3-.42-.43-.6,1.07.62,2.36.81,3.61.92-.3-.1-.6-.22-.82-.45.66-.1,1.28.15,1.93.08-.09.02-.18.03-.27.05.68,0,1.43.09,2.1-.02.65-.11,1.19-.5,1.84-.58.41-.05.82.02,1.23.09.33.66-.17,1.59-.61,2.08.12-.05.31-.04.44-.11.01.83-.68,1.51-1.04,2.18-.38.71-1.23,1.14-1.51,1.92-.26.73.16,1.58.12,2.38-.05.98.01,1.77.27,2.69-.01-.87-.29-2.14.64-2.57-.14.08-.3.09-.43.13.13-.68.31-1.42.92-1.89-.04.19,0,.36-.08.55.41-.3.63-.93.6-1.41.02.18.08.36.08.55.53-.91,1.84-1.2,1.9-2.34.1.21.08.48.01.69.59-.65.68-1.5.53-2.27.19.1.42.31.45.39Z"/>
  <path class="cls-6" d="M59.85,170.69c-.25.38-.44.99-.47,1.44.24-.1.48-.22.73-.23-.16.2-.36.44-.64.5.42.74.17,1.58.14,2.4.09-.26.33-.36.53-.52-.12.42-.17.79-.18,1.23l.35-.3-.15.5c-.02.15,0,.31,0,.46.18-.21.41-.33.58-.49-.32.3-.44,1.01-.39,1.58.24-.24.5-.37.79-.52-.24.43-.27.92.04,1.35.07-.17.36-.42.45-.58.13.58.36,1.15.7,1.65.07-.28.21-.39.32-.63-.03.65-.04,1.35.37,1.84.06-.32.22-.57.4-.85.05.73.88,1.29.83,1.94.22-.16.45-.23.67-.45,0,.39.02.79.13,1.15.12-.2.39-.39.55-.58.03.91.61,1.92,1.39,2.36.08-.31.2-.55.24-.88.18.32.21.85.19,1.27.38-.13.87-.42.98-.6.1.4-.07.72-.39.89.6.03,2.93.05,2.48.99.48.03,1.02.08,1.45-.07.18.43.57.66.92.95,0-.22.13-.42.11-.65.5.45,1.2.59,1.78.95-.08-.26-.08-.48-.23-.73,0,0,0,0-.01,0-.03-.04-.03-.04,0,0,0,0,0,0,0,.01.61.63,1.76.72,2.59.68-.1.11-.16.32-.35.46.56.02,1.23-.1,1.66-.47,0,.17.14.44.11.67.86-.54.99-.12,1.86.2-.05-.24.01-.54-.07-.77.99.34,2.14.79,3.14.2-.08.16-.11.38-.25.57.51-.04,1.03-.38,1.44-.67,0,.23.15.41.13.67.26-.17.48-.31.61-.65.23.36.62.61,1.05.55-.06-.18,0-.49-.07-.67.45.11.89.39,1.37.47-.18-.25-.18-.52-.27-.77.39.16.69.46.88.85.28-.39.73-.66,1.09-.97.16.27.35.37.32.77.41-.2.78-.5,1.15-.74.07.25.25.44.24.74.47-.25.92-.6,1.08-1.12.24.27.5.54.77.74-.04-.28.03-.5-.07-.76.34.02,1.04.11,1.18.08l.4.2c.2-.37.24-.81.19-1.25.21.27.44.51.69.73.36-.37.36-.95.88-1.15-.03.17.06.4.03.58.74-.27,1.06-.78.99-1.57.13.14.43.27.57.46.02-.37,0-.77.03-1.15.3.06.65.15.96.25-.05-.39-.11-.8-.09-1.22.2.28.32.32.42.65.46-.52.96-1.47.86-2.24.08.21.31.49.38.66.19-.38.33-.77.45-1.17.15.26.27.39.27.75.25-.57.55-1.35.31-1.94.31.02.66-.06.97-.03-.1-.14-.19-.47-.27-.57.25.16.55.22.78.45-.05-.39-.02-.79.11-1.15.31.23.4.22.47.65.12-.69,1-1.17.61-1.91.28.14.59.25.87.42-.08-.21-.08-.62-.17-.84.35.01.73.12,1.07.17-.2-.35-.55-.61-.66-1-.14-.48.13-.75-.11-1.13.32.16.55.41.69.73.05-.59-.24-1.3-.59-1.74.25.09.52.09.77.27-.15-.67-.34-1.09-.84-1.58.29.16.52.21.76.47-.08-.41-.04-.97-.03-1.54-.14.31-.28.63-.38.98-.17-.12-.4-.16-.62-.15.15.27.62,1.07.7,1.49-.23-.07-.48-.11-.76-.09.24.25.56.67.58,1.03-.24-.08-.44-.25-.68-.28.03.59.03,1.35.13,1.92-.16-.06-.34-.12-.52-.15.13.18.16.42.12.64-.15-.08-.35-.12-.53-.09-.01.41-.02,1-.25,1.33,0-.24-.06-.47-.25-.62-.07.29-.16.57-.34.81-.1-.16-.19-.33-.31-.47-.21.36-.27.76-.29,1.17-.15-.12-.33-.22-.54-.28-.08.24-.05.48-.07.73-.35.08-.75.17-1.12.15.3.25.29.61.28.98-.09-.2-.27-.34-.49-.37-.13.31-.13.79-.17,1.13-.22-.11-.49-.15-.73-.19.21.42-.06,1.26-.39,1.58-.05-.24-.11-.49-.27-.69-.21.24-.48.62-.59.93-.15-.16-.22-.4-.23-.62-.38.32-.28,1,.03,1.32-.45,0-.85-.08-1.27-.14.09.33.37.61.43.97-.2-.11-.4-.25-.62-.28.31.33.08.78-.17,1.08.02-.43-.16-.83-.43-1.16,0,.33-.05.6-.25.87-.16.22-.44.32-.36.64-.09-.31-.18-.66-.11-.97-.31.23-.47.68-.6,1.07-.24-.32-.56-.56-.98-.67.18.28.4.69.25,1.01-.18-.15-.33-.34-.58-.34.26.3.42.68.03.86-.46.22-1-.31-1.44-.35.13.19.2.42.29.63-.27-.2-.59-.4-.93-.47.21.39-.04.72-.29,1.02-.07-.52-.29-.99-.65-1.37-.07.49-.44.67-.75,1.01,0-.25-.02-.49.05-.72-.38.21-.77.78-1.04,1.12.04-.29-.15-.59-.39-.72.01.3-.03.63-.17.87-.22-.42-.66-.79-1.12-.87.01.38-.09.7.04,1.07-.32-.11-.78-.32-.93-.63-.06.26-.24.59-.07.76-.36-.07-.58-.39-.55-.74-.11.11-.24.21-.34.33-.04-.27-.1-.54-.16-.83-.19.32-.57.75-.98.83.02-.18-.02-.37-.14-.49-.01.33-.48.61-.79.58.12-.2.21-.45.17-.68-.86.86-1.64.56-2.76.58.01-.16-.06-.29-.07-.43-.23.15-.59.44-.63.72-.18-.35-.21-.8-.11-1.17-.37.29-.66.74-.87,1.17-.23-.34-.43-.78-.61-1.16.05.55-.38,1.02-.88,1.16-.02-.36,0-.73-.12-1.07-.18.39-.75.62-1.17.63-.1-.34-.26-.75-.53-.98.08.27,0,.57-.21.74-.23-.57-1.16-.99-1.73-1.09.24.24.29.66.27.98-.37-.22-1.06-.47-1.09-.97-.23.12-.45.41-.49.67-.25-.31-.57-.69-.54-1.11-.18.13-.3.34-.31.56-.24-.25-.53-.43-.77-.67.08.18.1.38.07.58-.47-.33-1.02-.46-1.56-.59.1-.15.23-.3.32-.44-.25,0-.5.09-.73.17,0-.5-.21-.98-.46-1.4-.08.37-.32.54-.55.74-.04-.58-.56-.97-.6-1.49-.25.17-.57.43-.69.72-.3-.49-.79-1.04-.6-1.66-.19.07-.39.16-.58.19.03-.09,0-.25.04-.34-.06.06-.23.13-.28.19-.02-.3-.17-.58-.2-.87-.14.12-.3.24-.44.33-.07-.68-.98-.99-.91-1.78-.24.12-.47.3-.62.53-.21-.45-.06-1.21.08-1.65-.32.13-.68.38-.84.68-.21-.34-.51-.88-.35-1.28-.26.03-.5.18-.69.37.06-.39.04-.88.28-1.22-.22.02-.46.13-.67.24.09-.3.06-.68.29-.93-.21-.03-.41.06-.58.17.09-.31.06-.66.27-.93-.15.05-.27.04-.42.14,0-.26.11-.51.13-.77-.63,0-.41-1.13-.2-1.44-.12.04-.24.02-.37.04.38-.28.38-.86.43-1.27-.18.16-.42.23-.64.32.07-.47.27-.93.38-1.38-.17-.02-.34,0-.49.07.03-.15.05-.32.03-.48-.13.3-.29.59-.37.89.19-.06.4-.16.62-.15Z"/>
  <path class="cls-3" d="M88.9,163.88c.06-.05.12-.16.19-.22-.78.14-2.51-.32-3.04.34.08-.1.08-.21.13-.3-1.07.17-2.13.26-3.29.34.02.08.03.17.05.24-.88-.61-2.33.06-3.29-.4-.12.18-.33.37-.54.45.08-.14.08-.37.13-.49-.79-.04-1.52-.08-2.24-.41l-.4-.07c.54.31.51.91,1.18,1.14-.11.19-.26.39-.38.57.35.14.7.03,1.04-.04-.09.27-.37.45-.58.64.38.01.65-.28,1.05-.24-.12.29-.42.43-.7.56.32.27.43.67.71.95.18-.16.37-.19.59-.19-.09.04-.21.21-.32.27.35.37.65.73.93,1.16.14-.12.34-.19.45-.36,0,.26-.04.5-.06.75.29-.09.41-.35.52-.61,0,.37.07.75.25,1.03.01-.28.16-.52.4-.65,0,.27-.06.51-.04.78.37.16.8.29,1.16.47-.04-.34.05-.69.34-.9.08.28.1.6.09.9.13-.25.31-.62.5-.9-.04.25-.09.55-.04.83.29-.01.62.02.89.07-.08-.21-.06-.45.04-.65.24.36.71.66,1.16.65-.03-.13.04-.29,0-.43.3.17.71.35,1.05.36.1-.2.2-.41.27-.63.04.14.18.28.22.42.26-.3.62-.63.71-1.02.03.11.15.23.18.31.28-.3.58-.61.61-1.03.08.09.2.12.27.22.17-.19.26-.44.27-.7.43-.08.73-.28,1.03-.59-.15.02-.34-.04-.49-.02.23-.2.43-.46.45-.77.19.02.41-.02.58.04-.1-.17-.13-.36-.27-.52.38-.28.96-.33,1.07-.9-.24.21-.52.33-.84.31.35-.29.61-.69.94-.98-.85.16-2.07.38-2.95.24ZM88.57,166.17c.13.14.17.38.25.49-.27-.03-.5.04-.77-.07.18.22.17.45.27.67-.17-.09-.47-.07-.66-.18.01.2-.07.48-.04.68-.1-.19-.36-.43-.48-.65.08.45-.21.79-.58,1.03-.04-.33-.17-.36-.29-.63-.05.21-.22.47-.21.73-.25-.25-.57-.49-.88-.66,0,.24-.12.44-.13.68-.15-.18-.42-.31-.55-.56-.08.26-.34.44-.4.55-.01-.19-.11-.31-.14-.48-.27.34-.7.58-1.15.68.07-.36-.06-.58-.22-.79-.1.14-.37.27-.47.4-.09-.17-.25-.28-.33-.45-.03.12-.1.21-.12.35-.27-.24-.4-.31-.49-.68-.06.1-.24.23-.3.37-.36-.22-.35-.63-.09-.96-.28.14-.63.2-.96.17.11-.19.09-.56.17-.76-.17.03-.4-.06-.57-.03.18-.23.32-.48.37-.76.11-.09.23-.18.32-.27,0,.24.1.41,0,.72.3-.2.42-.23.61-.55.27.25.61.48.96.65-.07-.18-.03-.42-.09-.62.64.71,1,.25,1.68.08-.03.17,0,.33-.05.49.26-.19.51-.34.74-.58-.01.21.1.31.03.55.45,0,.86-.28.98-.74.13.23.44.36.57.55,0-.24.13-.35.03-.64.36.16.74.35,1.06.55.1-.33.32-.59.62-.75,0,.26.12.4.04.67.26-.17.58-.25.83-.4-.05.18,0,.35-.09.55.37-.07.6-.29.63-.65.19.2.5.45.66.68,0-.24.13-.44.14-.68.01.02.03.04.04.06-.2.63-.01,1.46-.92,1.21Z"/>
  <path class="cls-4" d="M106.45,148.91c.04.07.06.15.08.22.05-.13.05-.27-.04-.43-.3-.53-2.23-.65-2.8-.75.19.1.36.22.54.34-.23-.11-.56-.19-.84-.14-.19.04-.4.3-.54.32-.46.06-1.04-.31-1.49-.39.25.09.46.26.43.52-.8.11-1.58-.49-2.39-.59-.72-.09-1.46-.17-2.14-.37.2.14.38.35.5.56-.38-.09-.74-.3-1.09-.46.22.17.44.32.5.58-.96-.77-2.23-.55-3.27-1.11.28.27.68.46.96.65-.56-.09-1.26-.16-1.76-.53-.46-.34-.74-.81-1.31-1.03.11.15.11.3.17.45-.45-.1-.91-.38-1.36-.53.25.17.41.41.36.71-.52-.51-1.33-.3-1.71-1.01-.08.23-.09.5-.08.75-.3-.26-.52-.64-.57-1.01-.13.17-.19.39-.16.62-.5-.36-.02-1.92-.07-2.56-.07.23-.17.54-.36.77.39-.87-.33-1.64.41-2.48-.2.03-.42.14-.58.3.22-.59.52-1.19,1.14-1.4h0c-.32.15-1.27.49-1.45.78-.23.38-.06,1.45-.08,1.9-.06,1.3-1.04,3.08-.26,4.3l.2.26c.01.14-.01.24.19.38,0-.2.11-.31.16-.5.59.24,1.19.63,1.9.37-.03-.13.05-.31.02-.44.52.02,1.05.33,1.57.37-.1-.1-.23-.3-.32-.38.97.64,2.22.71,3.35.77,1.13.07,1.98.36,3.03.68-.12-.21-.3-.42-.43-.6,1.07.62,2.36.81,3.61.92-.3-.1-.6-.22-.82-.45.66-.1,1.28.15,1.93.08-.09.02-.18.03-.27.05.68,0,1.43.09,2.1-.02.65-.11,1.19-.5,1.84-.58.41-.05.82.02,1.23.09ZM86.14,148.7c.15-.14.25-.31.37-.47-.45.31-1.4.16-1.45-.47l-.26.33c-.08.19-.12.36-.26.52.43.11.6.84.93.93.34.09,1.22-.63,1.32-.96-.19.16-.43.21-.65.13ZM108.74,151.87c-.16-.35-.12-.92-.26-1.31-.16-.44-.39-.86-.56-1.29.19.05.41-.04.31-.31-.09-.26-.52-.28-.75-.39-.23-.11-.44-.25-.65-.4.09.22.24.41.34.64.15.33.07.38.13.67.11.54.71,1.09.7,1.65-.17-.12-.38-.17-.58-.25.38.57.32,1.07.33,1.76-.05-.26-.22-.45-.45-.5,0,1.27-.61,1.78-1.64,2.23.14-.17.21-.34.28-.53-.34.21-.74.39-.85.8-.32-.86,1.53-1.86,1.48-2.88-.12.2-.29.25-.45.37.19-.58.76-1.21.71-1.89-.23.09-.34-.02-.39-.21-.14.37-.37.72-.59.97.12-.05.31-.04.44-.11.01.83-.68,1.51-1.04,2.18-.38.71-1.23,1.14-1.51,1.92-.26.73.16,1.58.12,2.38-.05.98.01,1.77.27,2.69-.01-.87-.29-2.14.64-2.57-.14.08-.3.09-.43.13.13-.68.31-1.42.92-1.89-.04.19,0,.36-.08.55.41-.3.63-.93.6-1.41.02.18.08.36.08.55.53-.91,1.84-1.2,1.9-2.34.1.21.08.48.01.69.59-.65.68-1.5.53-2.27.19.1.42.31.45.39ZM84.75,147.03c-.06-.71-.22-1.33-.15-2.05.06-.62.2-1.27.13-1.92-.06-.63-.35-1.19-.34-1.84-.88-.16-1.69-.59-2.49-1.04-.05.11-.13.21-.2.3.4.54,1.27,1.22,1.06,1.89.97-.96,1.14,1.29,1.11,1.92-.14-.23-.32-.49-.53-.68.3.41.43,2.2-.26,2.1-.32-.05-.38-.87-.91-.34-.18.17-.07.69-.33.92.14-.21.17-.47,0-.65-.05.58-.68.92-1.18,1.11.23-.28.42-.67.44-1.03-.45.93-1.79.46-2.49,1.1.2-.18.42-.4.5-.64-.51-.03-1.25.5-1.64.82.25-.28.53-.54.46-.95-.25.57-1.22.73-1.73,1.01.19-.21.41-.42.6-.62-.78.18-1.48.15-2.23.61.07-.16.32-.5.38-.74-.81.7-1.81,1.23-2.88,1.39.14-.2.38-.39.57-.52-.35-.05-.73.01-1.03.19.26-.29.58-.72.69-1.06-.66.47-1.73.17-2.38.72.14-.14.29-.35.33-.52-.64.32-1.09.83-1.9.7.14-.09.28-.27.44-.37-.58,0-1.17.21-1.67.52.2-.18.35-.4.36-.66-.47.55-1.12.46-1.75.71.25-.17.45-.43.56-.71-.75.27-1.59.32-2.34.73.16-.17.29-.38.36-.59-.38.26-.79.52-1.22.71.18-.17.29-.39.31-.63-.59.43-1.32.49-1.99.7-.77.25-1.33.75-1.8,1.44-.6.88-1.77,3.08-1.06,4.12-.28-.09-.51-.33-.64-.58-.04.47.14.9.33,1.28-.39-.14-.86-.21-1.12-.55.06.24.21.45.38.63-.65-.2-1.21-.84-1.1-1.58h-.01c-.03.25-.05.49-.04.73.04.8.97,1.54,1.68,1.85-.26,0-.51-.09-.75-.13.8.66,1.36,1.42,2.03,2.11l.2-.07c0-.77.23-1.48.12-2.25-.13-.93-.48-1.67-.45-2.66.07-2.01,1.22-4.29,3.49-4.2-.25.19-.53.37-.82.52,1.12.07,2.25-.21,3.26-.6-.26.31-.55.61-.95.74,1.44-.02,2.98-.86,4.39-.13-.25.02-.5.1-.75.13,1.1.19,2.36.09,3.41-.26-.09.27-.45.47-.76.52,1.12.02,2.14-.37,3.23-.22,1.1.16,2.29.19,3.29-.36-.1.36-.67.56-.98.69.88.12,1.7-.41,2.43-.77.05.39-.35.65-.69.79.97-.36,2.09-.71,3.08-.67.8.04,1.23,0,1.91-.52-.12.36-.5.58-.78.82.35-.13,2.67-1.01,1.92.18.73-.51,1.01-.73.93-1.61Z"/>
  <path class="cls-2" d="M84.75,147.03c-.06-.71-.22-1.33-.15-2.05.06-.62.2-1.27.13-1.92-.06-.63-.35-1.19-.34-1.84-.88-.16-1.69-.59-2.49-1.04-.57,1.13-2.34,1.72-3.45,2.21-1.63.71-3.35,1.15-4.89,2.04.24-.27.57-.45.83-.71-1.07.28-2.04.73-3.14.93-1.08.19-2.15.51-3.17.85.19-.35.52-.57.88-.72-.96.14-1.93.48-2.87.67-1.04.21-2.01.46-2.99.96.13-.12.24-.3.37-.43-.62.13-1.2.52-1.83.65-.58.12-1.14.1-1.65.41-.77.46-1.64,2.41-2.63,1.85.04.85-.58,1.67-.35,2.48-.34-.11-.5-.4-.45-.75,0,.83-.29,1.7-.25,2.49.04.8.97,1.54,1.68,1.85-.26,0-.51-.09-.75-.13.8.66,1.36,1.42,2.03,2.11l.2-.07c0-.77.23-1.48.12-2.25-.13-.93-.48-1.67-.45-2.66.07-2.01,1.22-4.29,3.49-4.2-.25.19-.53.37-.82.52,1.12.07,2.25-.21,3.26-.6-.26.31-.55.61-.95.74,1.44-.02,2.98-.86,4.39-.13-.25.02-.5.1-.75.13,1.1.19,2.36.09,3.41-.26-.09.27-.45.47-.76.52,1.12.02,2.14-.37,3.23-.22,1.1.16,2.29.19,3.29-.36-.1.36-.67.56-.98.69.88.12,1.7-.41,2.43-.77.05.39-.35.65-.69.79.97-.36,2.09-.71,3.08-.67.8.04,1.23,0,1.91-.52-.12.36-.5.58-.78.82.35-.13,2.67-1.01,1.92.18.73-.51,1.01-.73.93-1.61Z"/>
  <path class="cls-1" d="M108.74,151.87c-.16-.35-.12-.92-.26-1.31-.16-.44-.39-.86-.56-1.29.19.05.41-.04.31-.31-.09-.26-.52-.28-.75-.39-.67-.32-1.18-.88-1.84-1.2-.23-.11-.43-.09-.66-.21-.21-.11-.43-.32-.66-.44-.41-.22-.88-.36-1.28-.6.09.61-1.04.25-1.3.13.16,0,.28-.06.44-.08-1.56-.84-3.2-.45-4.75-1.1.18.13.36.31.46.49-1.08-.58-2.5-.67-3.47-1.39.16.16.25.36.25.58-.8-.91-1.99-1.12-2.89-1.9.16.26,0,.21-.02.41-.59-.31-1-.86-1.52-1.25-.43-.32-1.2-.52-1.25-1.12-.32.16-1.27.49-1.45.78-.23.38-.06,1.45-.08,1.9-.06,1.3-1.04,3.08-.26,4.3l.2.26c.01.14-.01.24.19.38,0-.2.11-.31.16-.5.59.24,1.19.63,1.9.37-.03-.13.05-.31.02-.44.52.02,1.05.33,1.57.37-.1-.1-.23-.3-.32-.38.97.64,2.22.71,3.35.77,1.13.07,1.98.36,3.03.68-.12-.21-.3-.42-.43-.6,1.07.62,2.36.81,3.61.92-.3-.1-.6-.22-.82-.45.66-.1,1.28.15,1.93.08-.09.02-.18.03-.27.05.68,0,1.43.09,2.1-.02.65-.11,1.19-.5,1.84-.58.41-.05.82.02,1.23.09.33.66-.17,1.59-.61,2.08.12-.05.31-.04.44-.11.01.83-.68,1.51-1.04,2.18-.38.71-1.23,1.14-1.51,1.92-.26.73.16,1.58.12,2.38-.05.98.01,1.77.27,2.69-.01-.87-.29-2.14.64-2.57-.14.08-.3.09-.43.13.13-.68.31-1.42.92-1.89-.04.19,0,.36-.08.55.41-.3.63-.93.6-1.41.02.18.08.36.08.55.53-.91,1.84-1.2,1.9-2.34.1.21.08.48.01.69.59-.65.68-1.5.53-2.27.19.1.42.31.45.39Z"/>
  <path class="cls-5" d="M78.91,146.02c-3.18-.11-6.24.3-9.4.41-2.48.09-4.89-.18-7.33.48-.88.24-1.83.47-2.51,1.1-1.28,1.18-1.65,2.81-1.59,4.5l1.26,1.32c.01-.91-.15-1.72.25-2.57.03.38-.04.8.08,1.16-.02-1.45.46-3.79,2.35-3.67-.12.09-.24.29-.37.37.67.05,1.46-.31,2.03-.64-.06.29-.38.54-.53.59.89-.3,1.98-.37,2.91-.45-.16.26-.45.51-.77.59.88.07,1.74-.27,2.55-.46-.11.16-.3.31-.5.4.92-.21,1.92-.38,2.88-.32-.15.2-.43.39-.7.45.58,0,1.08,0,1.63-.2.59-.21,1.13-.57,1.78-.45-.18.25-.49.53-.83.52,1.17,0,2.41.01,3.53-.19-.15.21-.43.4-.63.5,1.33-.27,2.68-.33,3.95-.71-.08.17-.1.32-.29.46.81-.49,2.23-1.01,3.19-.85-.19.12-.33.29-.49.44.7.03,2.57-.75,2.3-1.51-.49-1.36-3.74-1.24-4.77-1.27ZM107.09,149.15c-.43-.62-1.54-1.01-2.24-1.12-3.52-.57-7.21-.02-10.72-.74-1.29-.26-4.15-1.38-5.22-.58l.33,1.19c.55.59,1.8.93,2.57,1.05-.08-.06-.2-.19-.3-.26,1.51.2,3.5.13,4.79,1.04-.06-.08-.13-.27-.23-.38.94.35,1.66.53,2.67.54-.21-.05-.42-.12-.62-.2,1.17.1,2.26.38,3.47.4-.2-.08-.42-.2-.57-.32,1.09.18,2.1.07,3.17-.08.69-.1,2.6-.33,1.66.85.79-.04,1.79-.59,1.25-1.38Z"/>
  <path class="cls-12" d="M61.26,170.8c.21-.26.42-.53.46-.82l-.41.67.21-.6c-.44.13-.86,1.17-.53,1.52l.27-.77ZM60.79,170.77l.6-1.26c-.29.25-.6.83-.6,1.26ZM60.97,169.48l.41-.83c-.45.21-.69.71-.72,1.21-.1.15-.18.3-.21.45l.2-.22s0,.02,0,.02l.03-.05.9-1.01c-.2.07-.42.23-.61.43ZM61.19,168.26c-.33.08-.5.61-.6.93l.6-.93ZM60.26,168.66l.66-.66c-.25.19-.49.41-.66.66ZM60.79,167.8c-.15.09-.25.23-.26.4l.26-.4ZM60.46,167.6l.13-.33c-.08.09-.13.21-.13.33ZM60.73,172.29l1.19-1.59c-.63.27-1.07.91-1.19,1.59ZM61.15,172.68l.1-.25.73-.93c-.24.05-.41.24-.55.45l.35-.92c-.35.29-.79,1.07-.7,1.56-.03.06-.06.11-.09.16l.1-.12s.01.07.03.1c-.16.22-.25.44-.19.62l1.39-1.65c-.31.18-.85.58-1.16.99ZM61.32,173.88l.99-1.72c-.56.24-1.2,1.13-.99,1.72ZM62.64,172.23c-.69.14-1.11,1.84-.93,2.38l.93-2.38ZM61.78,175.47l1.46-1.79c-.34.18-.77.51-1.07.89l.1-.32.84-1.03c-.3.24-.54.49-.75.76l.48-1.49c-.41.41-.59,1.12-.67,1.75-.15.22-.3.45-.45.7l.43-.54c0,.08-.02.15-.02.22-.2.27-.34.56-.34.84ZM62.31,175.93l1.19-2.31c-.69.44-1.18,1.5-1.19,2.31ZM63.14,175.89c0,.06.02.12.03.18l.06-.31.87-1.28c-.29.17-.56.46-.78.79l.32-1.72c-.42.4-.56,1.38-.52,2.07-.12.24-.22.49-.27.71l.3-.44ZM62.97,176.86l1.39-1.98c-.69.19-1.23,1.35-1.39,1.98ZM63.64,177.39l1.06-2.78c-.68.58-1.06,1.92-1.06,2.78ZM64.83,176.45c.15-.21.29-.42.4-.65l-.4.65ZM64.29,177.39l.02-.09.52-.85c-.17.24-.34.48-.5.73l.43-2.44c-.2.87-.45,1.59-.45,2.5-.08.13-.15.27-.21.41l.2-.33s0,.04,0,.07ZM64.23,178.25l.92-2.05c-.43.52-.86,1.37-.92,2.05ZM64.56,178.91l.86-2.65c-.65.46-.9,1.9-.86,2.65ZM65.87,177.86l.61-1.14c-.43.4-.81,1.11-.95,1.7-.03.05-.06.1-.09.16l.1-.97.81-1.35c-.21.23-.54.59-.77.95l.11-1.08c-.21.64-.65,1.98-.3,2.57-.09.18-.17.36-.25.55.04.05.09.04.15-.02l1.59-2.45c-.4.31-.73.67-1.01,1.07ZM65.68,179.83l.8-1.6c-.16.54-.1,1.32,0,1.73l.33-2.25c-.05.03-.09.08-.13.13l.2-.39c-.62.39-1.48,1.68-1.19,2.38ZM68,177.85c-.08.06-.15.14-.22.22l.15-.28c-.4.31-.72.9-.86,1.44v-1.5c-.13.49-.33,1.64,0,1.98v-.32l.22-.41c-.16.45-.27.93-.35,1.33l1.06-2.45ZM67.47,180.96l.73-2.78c-.51.71-1.26,1.9-.73,2.78ZM69.52,177.92c-.31.27-.53.58-.7.91-.01-.08-.02-.17-.04-.25l.03.26c-.22.43-.35.9-.49,1.37l-.06-2.03c-.13.56-.24,1.62.01,2.19-.02.08-.05.17-.08.26l.1-.2s.02.05.03.07v-.13s1.19-2.45,1.19-2.45ZM68.78,178.57l-.12-1.05c0,.36.07.7.12,1.05ZM68.53,181.36l.86-2.98c-.34.82-1.2,2.12-.86,2.98ZM70.98,178.25c-.63.81-1.05,1.77-1.54,2.68l-.02-.77.63-1.65c-.3.44-.59.91-.64,1.44l-.02-.65c-.12.66-.43,1.54.07,2.12v-.49s1.52-2.69,1.52-2.69ZM69.65,182.08l.68-1.83c-.24.61-.49,1.21-.68,1.83ZM70.33,180.25c.23-.58.46-1.16.64-1.74l-.64,1.74ZM71.41,180.48l.06-.5.83-1.34c-.29.21-.54.51-.77.84l.11-.97c-.09.39-.16.76-.22,1.13-.2.31-.37.64-.52.97l.21-1.31c-.06.14-.12.3-.18.47.08-.33.15-.67.18-1l-.31,1.39c-.21.63-.39,1.34-.45,1.99,0,.07-.03.13-.04.19l.03-.14c-.04.44-.02.86.1,1.2l.39-2.39.5-.81c-.02.18-.03.36-.05.54-.34.84-.48,1.84-.18,2.4l.92-3.57c-.23.21-.45.54-.62.92ZM72.9,180.67c.17-.36.34-.72.46-1.11l-.46,1.11ZM73.75,183.41l.66-3.04c-.37,1.04-.76,1.89-.66,3.04ZM74.55,183.14l.1-1.66c-.05.55-.14,1.09-.1,1.66ZM75.47,183.27v-2.12c-.16.7-.22,1.43,0,2.12ZM76.27,181.69c-.13.47-.18.96,0,1.31,0,.16,0,.32,0,.48l.13-2.05c-.09.31-.12.63-.13.95v-.68ZM77.06,183.01v-1.06c-.1.36-.1.71,0,1.06ZM95.45,181.82c-.14-.32-.32-.64-.53-.93l.53.93ZM95.31,180.49l.79.93c-.18-.46-.49-.84-.79-.93ZM95.71,179.83l.93,1.19c-.07-.54-.42-.98-.93-1.19ZM96.9,180.76c-.13-.61-.45-1.18-.93-1.59l.93,1.59ZM97.03,180.63c.06-.69-.21-1.33-.66-1.85l.66,1.85ZM97.17,180.36c.05-.64-.08-1.28-.4-1.85l.4,1.85ZM96.64,178.38l1.45,1.46c-.33-.57-.88-1.08-1.45-1.46ZM96.77,178.25l1.72,1.45c-.36-.58-1.07-1.22-1.72-1.45ZM97.17,177.45l1.59,2.51c0-.99-.6-2.24-1.59-2.51ZM97.83,177.19l1.32,2.65c.13-.97-.29-2.34-1.32-2.65ZM98.49,176.79l1.06,2.78c.09-1.02-.15-2.21-1.06-2.78ZM100.08,178.91c.02-.77-.22-1.58-.8-2.12l.8,2.12ZM99.55,176.26l1.32,1.45c-.42-.51-.79-1.05-1.32-1.45ZM99.81,176.13l1.32,1.19c-.43-.44-.73-1-1.32-1.19ZM100.08,175.73l1.06,1.19c-.15-.52-.57-.93-1.06-1.19ZM100.47,174.81l1.06,2.12c.08-.85-.35-1.63-1.06-2.12ZM100.74,174.81l1.06,1.46c-.12-.62-.45-1.26-1.06-1.46ZM100.85,174.25c-.12.06-.15.16-.12.3l2.12,1.45c-.43-.8-1.21-1.33-2-1.75ZM101,174.01l2.38,1.72c-.55-.67-1.54-1.74-2.38-1.72ZM101.66,173.49l1.85,2.12c-.43-.84-1.14-1.54-1.85-2.12ZM102.06,173.22l1.59,1.98c.02-.9-1.02-1.77-1.59-1.98ZM102.46,172.69l1.32,2.12c-.16-.79-.5-1.9-1.32-2.12ZM102.19,172.29l1.99,1.19c-.37-.66-1.24-1.08-1.99-1.19ZM102.59,171.76l1.85,1.32c-.13-.82-1.1-1.52-1.85-1.32ZM103.12,171.24l1.32,1.46c-.31-.59-.74-1.13-1.32-1.46ZM103.38,170.71l.93,1.32c.02-.61-.37-1.14-.93-1.32ZM103.65,170.44l.93.79c-.12-.51-.47-.82-.93-.79ZM103.65,170.18l1.46.66c-.38-.45-.87-.81-1.46-.66ZM103.45,169.45l1.22.49.3.5c-.08-.18-.17-.34-.28-.5l.41.17c-.27-.44-1.16-.79-1.65-.66ZM104.04,169.12l1.06.86c-.25-.39-.64-.68-1.06-.86ZM105.04,169.58c-.04-.44-.45-.75-.79-.99l.79.99ZM104.97,168.92c-.13-.25-.32-.48-.53-.66l.53.66ZM104.9,168.26c-.19-.21-.45-.33-.73-.33l.73.33ZM105.1,167.93c-.18-.12-.38-.21-.59-.26l.59.26ZM104.38,167.2l.79.46c-.14-.3-.46-.53-.79-.46ZM104.51,166.87l.59.46c-.1-.27-.4-.51-.59-.46ZM104.57,166.47l.46.26c-.08-.17-.26-.27-.46-.26ZM105.1,166.47l.13.2c-.01-.08-.06-.15-.13-.2ZM78.32,181.75c-.04.32-.08.69-.07,1.06l.07-1.06ZM78.71,181.69c-.12.48-.2.97-.26,1.46l.26-1.46ZM79.24,181.62c-.28.6-.31,1.26-.33,1.92l.33-1.92ZM79.51,183.93l.2-2.38c-.29.65-.7,1.75-.2,2.38ZM79.97,184l.07-2.31c-.12.73-.28,1.61-.07,2.31ZM80.37,184.4l-.1-1.85c-.02.63-.03,1.27.1,1.85ZM80.24,181.82l.04.73c.01-.31.03-.61.03-.9-.02.06-.05.12-.07.17ZM80.96,184.53l-.07-2.98c0,.98-.1,2.01.07,2.98ZM81.09,181.82l.27,2.25c.19.05.22-2.12-.18-2.52-.03.09-.06.18-.08.27ZM81.76,184.4c.24-.78.29-2.6,0-3.44v3.44ZM82.42,184.46c.34-.75.29-2.35-.07-3.11l.07,3.11ZM83.01,184.86c.33-.96.37-2.85.07-3.84l-.07,3.84ZM83.34,185.13c.39-1.39.3-2.81.26-4.23l-.26,4.23ZM84.27,181.09l-.4,4.04c.71-.87.83-3,.4-4.04ZM84.47,184.66c.5-.81,1.21-2.8.6-3.7l-.6,3.7ZM85.72,184.27l.07-2.84c-.21.89-.35,1.96-.07,2.84ZM86.32,184.4l-.07-3.24c-.13,1.03-.28,2.24.07,3.24ZM87.25,184.13l-.53-2.98c-.03.99.24,2.04.53,2.98ZM87.44,184.46c.58-.53-.1-2.87-.53-3.5l.53,3.5ZM87.91,184.53c.39-1.05-.07-2.43-.4-3.44l.4,3.44ZM88.63,180.83l-.14,1.46c-.03-.58-.14-1.13-.46-1.46l.33,2.87-.06.64s.08-.08.12-.13v.13s.02-.11.02-.16c.45-.69.65-2.85.19-3.35ZM88.63,184.13c.68-.72.87-2.44.6-3.37l-.6,3.37ZM89.43,183.67c.13-.81.36-1.79.13-2.58l-.13,2.58ZM90.29,183.41c.07-.93-.48-1.96-.86-2.78l.86,2.78ZM90.62,183.54c.32-.8-.12-2.25-.66-2.91l.66,2.91ZM90.95,183.6c.4-.96-.1-2.46-.33-3.44l.33,3.44ZM91.15,180.36l.2,3.44c.38-.8.28-2.66-.2-3.44ZM91.81,180.17l-.26,3.37c.67-.15.68-3.31.26-3.37ZM92.34,182.94c.36-.72.54-2,.07-2.71l-.07,2.71ZM92.74,182.74c.59-.44.49-1.64.2-2.25l-.2,2.25ZM93.26,180.36l.26,1.72c0-.46.12-1.56-.26-1.72ZM93.93,181.62c.03-.49-.16-.97-.4-1.39l.4,1.39ZM94.19,181.09c.01-.21-.05-.41-.2-.53l.2.53ZM94.65,181.29c0-.24-.07-.46-.2-.66l.2.66ZM77.85,180.96c-.2.72-.27,1.55-.33,2.31l.33-2.31ZM77.39,183.54v-2.58c-.07.83-.33,1.78,0,2.58ZM77.06,183.41l-.2-1.92c0,.63-.08,1.33.2,1.92ZM75.87,181.42c-.14.34-.14.69-.16,1.03l.16-1.03ZM75.71,182.46l-.11.69c.08-.22.09-.45.11-.69ZM75.47,180.76c-.29.66-.58,1.45-.53,2.18l.53-2.18ZM74.68,182.81l.27-1.65c-.13.57-.29,1.06-.27,1.65ZM74.15,182.55l.46-1.72c-.24.54-.5,1.12-.46,1.72ZM73.75,182.48l.4-1.92c-.22.6-.44,1.27-.4,1.92ZM73.61,181.04l.08-.88c-.26.4-.39,1-.42,1.59,0,.02-.01.03-.02.04l.04-1.5c-.2.66-.28,1.28-.2,1.93-.13.37-.23.75-.26,1.18l.32-.86c.02.13.04.26.08.4l.02-.65.04-.1c.02.28.07.54.14.75l.15-1.54.58-1.57c-.16.43-.36.82-.54,1.21ZM72.66,181.17l.23-1c-.17.46-.29.9-.39,1.35-.12.26-.23.53-.32.81l.14-1.53.18-.62c-.05.09-.1.19-.15.29v-.08s.48-1.08.48-1.08c-.16.06-.29.17-.4.31v-.05s0,.05-.02.07c-.33.47-.42,1.26-.51,1.78l.13-.31c-.02.14-.02.28-.03.42-.03.16-.04.33-.04.48l.05-.19c.02.2.06.39.12.59-.04.11-.08.21-.11.33l.12-.3s0,.02,0,.03v-.07s.3-.71.3-.71c-.07.34-.12.68-.17,1.04l.33-1.43.27-.64c-.08.16-.16.33-.23.49ZM71.64,181.88l.46-1.72c-.23.56-.47,1.1-.46,1.72Z"/>
</svg>