<?xml version="1.0" encoding="UTF-8"?>
<svg id="Eyes_1_C" xmlns="http://www.w3.org/2000/svg" xmlns:xlink="http://www.w3.org/1999/xlink" viewBox="0 0 153.76 235.96">
  <defs>
    <style>
      .cls-1 {
        fill: url(#linear-gradient-4);
      }

      .cls-2 {
        fill: url(#linear-gradient-3);
      }

      .cls-3 {
        fill: url(#linear-gradient-2);
      }

      .cls-4 {
        fill: url(#linear-gradient);
      }

      .cls-5 {
        fill: #fff;
      }
    </style>
    <linearGradient id="linear-gradient" x1="60.82" y1="111.82" x2="60.82" y2="108.73" gradientTransform="translate(11.29 -5.7) rotate(5.77)" gradientUnits="userSpaceOnUse">
      <stop offset="0" stop-color="#af5c37"/>
      <stop offset="1" stop-color="#843f29"/>
    </linearGradient>
    <linearGradient id="linear-gradient-2" x1="60.82" y1="111.82" x2="60.82" y2="108.73" gradientTransform="translate(11.29 -5.7) rotate(5.77)" gradientUnits="userSpaceOnUse">
      <stop offset="0" stop-color="#c1653d"/>
      <stop offset="1" stop-color="#9f4d32"/>
    </linearGradient>
    <linearGradient id="linear-gradient-3" x1="106.19" y1="111.82" x2="106.19" y2="108.73" gradientTransform="translate(-11.26 12.24) rotate(-6.27)" xlink:href="#linear-gradient"/>
    <linearGradient id="linear-gradient-4" x1="106.19" y1="111.82" x2="106.19" y2="108.73" gradientTransform="translate(-11.26 12.24) rotate(-6.27)" xlink:href="#linear-gradient-2"/>
  </defs>
  <g>
    <path class="cls-5" d="M71.11,112.17c-.11-.15-.21-.29-.45-.31-1.85-3.24-4.1-4.8-7.57-5.15-2.87-.29-8.52-.59-10.93,1.82,0,0,3.08,2.97,8.22,3.49,5.14.52,9.04.25,9.04.25l2.46.78-.76-.87Z"/>
    <g>
      <path class="cls-4" d="M64.97,109.6c.14-.97-.08-1.91-.55-2.69-.42-.09-.87-.16-1.34-.21-1.43-.14-3.55-.29-5.62-.11-.41.55-.69,1.2-.8,1.92-.15,1.05.11,2.05.65,2.86.91.29,1.93.52,3.05.63s2.14.19,3.1.24c.78-.65,1.34-1.57,1.49-2.65Z"/>
      <path class="cls-3" d="M64.35,109.52c.14-1.04-.18-2.02-.81-2.76-.15-.02-.3-.04-.45-.06-1.23-.12-2.96-.25-4.74-.17-.56.53-.94,1.25-1.06,2.06-.17,1.19.28,2.33,1.11,3.08.62.15,1.27.26,1.97.33.72.07,1.41.13,2.08.17.99-.52,1.73-1.49,1.89-2.67Z"/>
      <path d="M63.32,109.38c-.19,1.37-1.47,2.34-2.84,2.15-1.38-.18-2.34-1.43-2.15-2.8.19-1.37,1.46-2.33,2.84-2.15,1.37.18,2.34,1.43,2.14,2.8Z"/>
      <path class="cls-5" d="M62.28,107.89c-.07.53-.63.46-1.34.36-.7-.09-1.26-.16-1.2-.69.08-.53.7-.89,1.4-.79.7.09,1.2.59,1.13,1.12Z"/>
      <path class="cls-5" d="M60.89,110.78c-.02.17-.18.28-.34.26-.17-.02-.29-.18-.27-.34.02-.17.18-.28.35-.26.17.02.28.17.26.34Z"/>
    </g>
    <path d="M52.19,108.57c2.58-1.89,6.42-1.67,9.35-1.53,1.5.07,3.02-.07,4.46.46,1.44.53,4.22,2.52,4.3,4.42,0,.17.17.33.32.33.15.02.29.04.44.06.09.03.23-.05.2-.18-.17-.67-.75-.73-1.11-1.33-.53-.89-1.28-1.64-2.03-2.29-1.45-1.25-3.53-1.94-5.33-2.25-3.33-.58-8.1-.68-10.67,2.21-.05.06,0,.15.08.1h0Z"/>
  </g>
  <g>
    <path class="cls-5" d="M97.78,112.03c.1-.15.2-.29.42-.31,1.7-3.25,3.8-4.81,7.07-5.17,2.7-.3,8.03-.61,10.35,1.79,0,0-2.87,2.98-7.71,3.51s-8.52.27-8.52.27l-2.31.79.7-.87Z"/>
    <g>
      <path class="cls-2" d="M109.52,111.57c.52-.76.79-1.7.72-2.7-.07-.98-.47-1.85-1.07-2.52-1.47-.03-2.87.08-3.89.2-.97.11-1.82.32-2.61.65-.37.68-.55,1.48-.49,2.32.07,1.04.52,1.96,1.19,2.64,1.3-.04,2.85-.13,4.54-.31.57-.06,1.1-.16,1.61-.28Z"/>
      <path class="cls-1" d="M108.58,111.76c.72-.71,1.14-1.73,1.06-2.84-.07-1.06-.61-1.98-1.38-2.57-1.13.02-2.18.11-2.99.2-.58.06-1.13.17-1.64.31-.59.69-.92,1.62-.85,2.61.08,1.12.66,2.08,1.49,2.66,1.09-.05,2.32-.13,3.63-.28.23-.03.45-.06.67-.09Z"/>
      <path d="M108.64,109c.1,1.38-.91,2.59-2.24,2.69-1.34.11-2.51-.92-2.61-2.3-.1-1.38.9-2.58,2.25-2.69,1.33-.11,2.5.92,2.6,2.3Z"/>
      <path class="cls-5" d="M107.34,107.76c.04.53-.51.58-1.19.63-.68.06-1.23.1-1.27-.43-.04-.53.48-1.01,1.16-1.06.68-.06,1.26.33,1.3.87Z"/>
      <path class="cls-5" d="M106.63,110.87c.01.17-.11.31-.27.33-.16.01-.31-.11-.32-.28-.01-.17.11-.31.28-.33.16-.01.3.11.31.28Z"/>
    </g>
    <path d="M115.59,108.39c-2.47-1.88-6.08-1.65-8.85-1.5-1.41.08-2.86-.06-4.21.47-1.35.53-3.94,2.53-3.99,4.42,0,.17-.16.33-.3.33-.14.02-.27.04-.41.06-.09.03-.22-.05-.19-.18.15-.67.7-.73,1.03-1.33.48-.89,1.18-1.64,1.88-2.3,1.35-1.26,3.3-1.94,5-2.26,3.13-.59,7.63-.7,10.1,2.18.05.06,0,.15-.07.1h0Z"/>
  </g>
</svg>